<?xml version="1.0" encoding="UTF-8"?>
<svg xmlns="http://www.w3.org/2000/svg" viewBox="0 0 48 48" width="512" height="512"><g id="Farmer_man" data-name="Farmer man"><path d="M40.66,33.7,31,30.29V27.64A8.91,8.91,0,0,0,33,22h1a3,3,0,0,0,2.82-4H38c2.07,0,.92-5.1-3-5.9V11a11,11,0,0,0-22,0v1.1c-3.91.8-5.08,5.9-3,5.9h1.18A3,3,0,0,0,14,22h1a8.91,8.91,0,0,0,2,5.64v2.65L7.34,33.7A11,11,0,0,0,0,44.08V47a1,1,0,0,0,2,0V44.08a9,9,0,0,1,6-8.49l3-1.06v3.89A5,5,0,0,0,8,43v4a1,1,0,0,0,2,0V43a3,3,0,0,1,2.25-2.9,1.09,1.09,0,0,0,.75-1v-5.3l2-.71V39a1,1,0,0,0,1,1H32a1,1,0,0,0,1-1V33.12l2,.71c0,5.41-.22,5.93.69,6.24A3,3,0,0,1,38,43v4a1,1,0,0,0,2,0V43a5,5,0,0,0-3-4.58V34.53l3,1.06a9,9,0,0,1,6,8.49V47a1,1,0,0,0,2,0V44.08A11,11,0,0,0,40.66,33.7ZM19,29.48a9,9,0,0,0,10,0v1.15L27.8,32a5,5,0,0,1-7.6,0L19,30.63ZM31,22a7,7,0,0,1-14,0V18H31Zm3-2H33V18h1A1,1,0,0,1,34,20ZM15,11a9,9,0,0,1,18,0v1H15Zm-1,3H34a3,3,0,0,1,2.83,2H11.17A3,3,0,0,1,14,14Zm0,6a1,1,0,0,1,0-2h1v2ZM31,38H17V32.41l.69-.24,1,1.17a7,7,0,0,0,10.63,0l1-1.17.69.24Z"/><path d="M27.56,23.89a2.48,2.48,0,0,0-3.34-1.12.49.49,0,0,1-.44,0,2.46,2.46,0,0,0-1.9-.13,3,3,0,0,0-1.77,1.91A1,1,0,0,0,21.32,26c2.71-.9,2.62-.92,2.84-.84C26.89,26,26.78,26,27,26a1,1,0,0,0,.89-1.45Z"/></g></svg>
