<svg height="512" viewBox="0 0 48 48" width="512" xmlns="http://www.w3.org/2000/svg"><g id="Farmer_man" data-name="Farmer man"><path d="m30 27.29v3.71l-1.44 1.69a6 6 0 0 1 -9.12 0l-1.44-1.69v-3.71a8 8 0 0 0 12 0z" fill="#edb996"/><path d="m28.56 32.69a6 6 0 0 1 -7.93 1.05l-.63-.74a2.11 2.11 0 0 1 3-1.89 7.51 7.51 0 0 0 3 .89c3.77 0 5.48-2.74 2.56.69z" fill="#f6ccaf"/><path d="m47 44.08v2.92h-46v-2.92a10 10 0 0 1 6.67-9.43l10.33-3.65 1.44 1.69a6 6 0 0 0 9.12 0l1.44-1.69 10.33 3.65a10 10 0 0 1 6.67 9.43z" fill="#dad7e5"/><g fill="#edebf2"><path d="m10 33.83v5.3a4 4 0 0 0 -3 3.87v2c-4.43 0-3.46-6.36-.32-9.72 1.22-.78.58-.48 3.32-1.45z"/><path d="m28.56 32.69 1.44-1.69v8h-16v-6.59l4-1.41 1.44 1.69a6 6 0 0 0 9.12 0z"/><path d="m47 44.08v.92h-10v-2a4 4 0 0 0 -3-3.87v-6.72l6.33 2.24a10 10 0 0 1 6.67 9.43z"/></g><path d="m39 43v4h-30v-4a4 4 0 0 1 3-3.87v-6l4-1.41v7.28h16v-7.29l4 1.41v6a4 4 0 0 1 3 3.88z" fill="#df8761"/><path d="m32 17c0 4.69.48 7.47-2 10.29a8 8 0 0 1 -12 0c-2.5-2.84-2-5.61-2-10.29z" fill="#f6ccaf"/><path d="m32 19c0 3.1.53 7.34-4 9.94a8 8 0 0 1 -6.64-2.28c1.7-.66 1.64-.66 1.8-.55 2.71.9 2.61.89 2.84.89a1 1 0 0 0 .89-1.45l-.33-.66a2.49 2.49 0 0 0 -3.34-1.12.49.49 0 0 1 -.44 0 2.49 2.49 0 0 0 -3 .63c-.62-1.3-1.26-3.75-.17-4.81.81-.85.64-.59 12.39-.59z" fill="#ffdec7"/><path d="m34 21h-2v-4h2a2 2 0 0 1 0 4z" fill="#f6ccaf"/><path d="m14 21h2v-4h-2a2 2 0 0 0 -2 2 2 2 0 0 0 2 2z" fill="#f6ccaf"/><path d="m38 17h-28a4 4 0 0 1 4-4h20a4 4 0 0 1 4 4z" fill="#df8761"/><path d="m37.46 15h-23.08a1.13 1.13 0 0 1 -1.06-1.55c.27-.65-1-.45 20.68-.45a4 4 0 0 1 3.46 2z" fill="#f29b75"/><path d="m34 11v2h-20v-2a10 10 0 0 1 20 0z" fill="#df8761"/><path d="m34 11h-14.75a2 2 0 0 1 -2-2.4 10 10 0 0 1 8.19-7.48 10 10 0 0 1 8.56 9.88z" fill="#f29b75"/><path d="m24.16 25.11c-.23-.08-.2 0-2.84.84a1 1 0 0 1 -1.21-1.4l.33-.66a2.48 2.48 0 0 1 3.34-1.12.49.49 0 0 0 .44 0 2.48 2.48 0 0 1 3.34 1.12c.3.59.72 1.17.19 1.77s-1.12.27-3.59-.55z" fill="#7c7d7d"/><path d="m36 39.13v-6l-4-1.41v7.28h-16v-7.29l-3 1.06v8.23a4 4 0 0 0 4 4h22v-2a4 4 0 0 0 -3-3.87z" fill="#f29b75"/></g></svg>