<svg id="big" xmlns="http://www.w3.org/2000/svg" xmlns:xlink="http://www.w3.org/1999/xlink" viewBox="0 0 316.3154 304.0265"><defs><style>.cls-1{fill:url(#linear-gradient);}.cls-2{fill:#f2b41b;}</style><linearGradient id="linear-gradient" x1="443.2775" y1="-95.1691" x2="569.1289" y2="114.5828" gradientTransform="matrix(1, 0, 0, -1, -239.9607, 205.6617)" gradientUnits="userSpaceOnUse"><stop offset="0" stop-color="#8dc63f"/><stop offset="1" stop-color="#009444"/></linearGradient></defs><path class="cls-1" d="M184.1443,325.8716c4.8582-11.7254,21.2277-58.9072,33.1755-93.3589l8.8517-25.4518c1.795-5.1546,3.3595-10.301,4.817-15.0768,4.8664-15.9908,8.0777-26.5552,15.9413-26.9175,7.2461-.7575,13.7428,8.8846,24.0191,33.9906,18.4116,45.0162,75.1944,45.9714,93.4,45.14l-59.6652-143.212a58.3834,58.3834,0,0,0-53.8933-35.93h0a58.3835,58.3835,0,0,0-54.6081,37.73L96.047,367.5365C163.65,362.7689,180.53,334.6081,184.1443,325.8716Z" transform="translate(-96.047 -65.0544)"/><path class="cls-2" d="M291.6578,259.7974s101.513-1.5151,120.7045,106.0584C412.3624,365.8557,320.95,373.4314,291.6578,259.7974Z" transform="translate(-96.047 -65.0544)"/><path class="cls-2" d="M229.2191,369.081s-11.9585-64.1472,46.9536-82.192C276.1727,286.889,285.1706,350.3236,229.2191,369.081Z" transform="translate(-96.047 -65.0544)"/></svg>