<svg viewBox="0 -4 511.99936 511" xmlns="http://www.w3.org/2000/svg"><path d="m501.546875 503.085938h-491.09375c-7 0-12.019531-6.753907-10.003906-13.460938l85.632812-284.5c1.328125-4.414062 5.390625-7.4375 10-7.4375h319.835938c4.609375 0 8.671875 3.023438 10 7.4375l85.632812 284.5c2.015625 6.707031-3.003906 13.460938-10.003906 13.460938zm0 0" fill="#e29c6d"/><path d="m256 197.691406v152.695313h-213.640625l43.722656-145.265625c1.328125-4.410156 5.386719-7.429688 10.003907-7.429688zm0 0" fill="#edb48a"/><path d="m501.542969 503.078125h-245.542969v-152.691406h213.636719l41.910156 139.238281c2.019531 6.707031-3 13.453125-10.003906 13.453125zm0 0" fill="#edb48a"/><path d="m151.644531 365.289062v-25.335937c0-18.140625-14.703125-32.84375-32.84375-32.84375h-25.335937c-3.4375 0-6.226563 2.785156-6.226563 6.222656v25.335938c0 18.140625 14.707031 32.84375 32.847657 32.84375h25.335937c3.4375 0 6.222656-2.785157 6.222656-6.222657zm0 0" fill="#5be167"/><path d="m147.199219 374.460938c-1.976563 0-3.953125-.757813-5.464844-2.265626l-27.585937-27.589843c-3.019532-3.015625-3.019532-7.90625 0-10.925781 3.015624-3.015626 7.90625-3.015626 10.925781 0l27.589843 27.589843c3.015626 3.015625 3.015626 7.90625 0 10.925781-1.511718 1.511719-3.488281 2.265626-5.464843 2.265626zm0 0" fill="#aa6344"/><path d="m151.644531 441.070312c-4.265625 0-7.726562-3.460937-7.726562-7.726562v-74.835938c0-4.265624 3.460937-7.722656 7.726562-7.722656s7.726563 3.457032 7.726563 7.722656v74.835938c0 4.265625-3.460938 7.726562-7.726563 7.726562zm0 0" fill="#aa6344"/><path d="m151.644531 393.792969v-25.335938c0-18.140625 14.707031-32.84375 32.84375-32.84375h25.339844c3.433594 0 6.222656 2.785157 6.222656 6.222657v25.335937c0 18.136719-14.707031 32.84375-32.84375 32.84375h-25.339843c-3.4375 0-6.222657-2.785156-6.222657-6.222656zm0 0" fill="#1fc974"/><path d="m156.089844 402.960938c-1.976563 0-3.953125-.753907-5.460938-2.261719-3.019531-3.019531-3.019531-7.910157 0-10.929688l27.589844-27.589843c3.015625-3.015626 7.910156-3.015626 10.925781 0 3.019531 3.019531 3.019531 7.910156 0 10.929687l-27.589843 27.589844c-1.507813 1.507812-3.488282 2.261719-5.464844 2.261719zm0 0" fill="#aa6344"/><path d="m360.351562 365.289062v-25.335937c0-18.140625-14.703124-32.84375-32.84375-32.84375h-25.335937c-3.4375 0-6.222656 2.785156-6.222656 6.222656v25.335938c0 18.140625 14.703125 32.84375 32.84375 32.84375h25.335937c3.4375 0 6.222656-2.785157 6.222656-6.222657zm0 0" fill="#5be167"/><path d="m355.90625 374.460938c-1.976562 0-3.953125-.757813-5.464844-2.265626l-27.585937-27.589843c-3.019531-3.015625-3.019531-7.910157 0-10.925781 3.015625-3.019532 7.90625-3.015626 10.925781 0l27.589844 27.589843c3.015625 3.015625 3.015625 7.910157 0 10.925781-1.507813 1.511719-3.488282 2.265626-5.464844 2.265626zm0 0" fill="#aa6344"/><path d="m360.351562 441.070312c-4.265624 0-7.722656-3.460937-7.722656-7.726562v-74.835938c0-4.265624 3.457032-7.722656 7.722656-7.722656 4.269532 0 7.726563 3.457032 7.726563 7.722656v74.835938c0 4.265625-3.457031 7.726562-7.726563 7.726562zm0 0" fill="#aa6344"/><path d="m360.351562 393.792969v-25.335938c0-18.140625 14.707032-32.84375 32.84375-32.84375h25.339844c3.4375 0 6.222656 2.785157 6.222656 6.222657v25.335937c0 18.136719-14.707031 32.84375-32.84375 32.84375h-25.335937c-3.4375 0-6.226563-2.785156-6.226563-6.222656zm0 0" fill="#1fc974"/><path d="m364.800781 402.960938c-1.980469 0-3.957031-.753907-5.464843-2.261719-3.019532-3.019531-3.019532-7.910157 0-10.929688l27.589843-27.589843c3.015625-3.015626 7.90625-3.015626 10.925781 0 3.019532 3.019531 3.019532 7.910156 0 10.929687l-27.589843 27.589844c-1.507813 1.507812-3.484375 2.261719-5.460938 2.261719zm0 0" fill="#aa6344"/><path d="m342.113281 202.777344v-25.339844c0-18.136719-14.703125-32.84375-32.84375-32.84375h-25.335937c-3.4375 0-6.222656 2.785156-6.222656 6.222656v25.339844c0 18.136719 14.703124 32.84375 32.84375 32.84375h25.335937c3.4375 0 6.222656-2.789062 6.222656-6.222656zm0 0" fill="#5be167"/><path d="m337.667969 211.945312c-1.976563 0-3.957031-.757812-5.464844-2.265624l-27.589844-27.589844c-3.015625-3.015625-3.015625-7.90625 0-10.925782 3.019531-3.015624 7.910157-3.015624 10.929688 0l27.589843 27.589844c3.015626 3.015625 3.015626 7.90625 0 10.925782-1.511718 1.507812-3.488281 2.265624-5.464843 2.265624zm0 0" fill="#aa6344"/><path d="m342.113281 280.613281c-4.269531 0-7.726562-3.457031-7.726562-7.726562v-76.890625c0-4.269532 3.460937-7.726563 7.726562-7.726563s7.726563 3.457031 7.726563 7.726563v76.890625c0 4.269531-3.460938 7.726562-7.726563 7.726562zm0 0" fill="#aa6344"/><path d="m342.113281 231.277344v-25.335938c0-18.140625 14.703125-32.84375 32.84375-32.84375h25.335938c3.4375 0 6.222656 2.785156 6.222656 6.222656v25.335938c0 18.140625-14.703125 32.84375-32.84375 32.84375h-25.335937c-3.4375 0-6.222657-2.785156-6.222657-6.222656zm0 0" fill="#1fc974"/><path d="m346.558594 240.445312c-1.976563 0-3.957032-.753906-5.464844-2.265624-3.015625-3.015626-3.015625-7.90625 0-10.925782l27.589844-27.589844c3.019531-3.015624 7.910156-3.015624 10.929687.003907 3.015625 3.015625 3.015625 7.90625-.003906 10.925781l-27.589844 27.589844c-1.507812 1.507812-3.484375 2.261718-5.460937 2.261718zm0 0" fill="#aa6344"/><path d="m169.886719 202.777344v-25.339844c0-18.136719-14.707031-32.84375-32.84375-32.84375h-25.339844c-3.4375 0-6.222656 2.785156-6.222656 6.222656v25.339844c0 18.136719 14.707031 32.84375 32.84375 32.84375h25.339843c3.433594 0 6.222657-2.789062 6.222657-6.222656zm0 0" fill="#5be167"/><path d="m165.4375 211.945312c-1.976562 0-3.953125-.757812-5.460938-2.265624l-27.589843-27.589844c-3.015625-3.015625-3.015625-7.90625 0-10.925782 3.015625-3.015624 7.910156-3.015624 10.925781 0l27.589844 27.589844c3.019531 3.015625 3.019531 7.90625 0 10.925782-1.507813 1.507812-3.484375 2.265624-5.464844 2.265624zm0 0" fill="#aa6344"/><path d="m169.886719 280.613281c-4.269531 0-7.726563-3.457031-7.726563-7.726562v-76.890625c0-4.269532 3.457032-7.726563 7.726563-7.726563 4.265625 0 7.722656 3.457031 7.722656 7.726563v76.890625c0 4.269531-3.457031 7.726562-7.722656 7.726562zm0 0" fill="#aa6344"/><path d="m169.886719 231.277344v-25.335938c0-18.140625 14.703125-32.84375 32.84375-32.84375h25.335937c3.4375 0 6.222656 2.785156 6.222656 6.222656v25.335938c0 18.140625-14.703124 32.84375-32.84375 32.84375h-25.335937c-3.4375 0-6.222656-2.785156-6.222656-6.222656zm0 0" fill="#1fc974"/><path d="m174.332031 240.445312c-1.976562 0-3.957031-.753906-5.464843-2.261718-3.015626-3.019532-3.015626-7.910156 0-10.929688l27.589843-27.589844c3.015625-3.015624 7.910157-3.015624 10.925781 0 3.019532 3.019532 3.019532 7.910157 0 10.929688l-27.585937 27.589844c-1.511719 1.507812-3.488281 2.261718-5.464844 2.261718zm0 0" fill="#aa6344"/><path d="m317.808594 434.457031c-4.265625 0-7.773438-3.457031-7.773438-7.726562 0-4.265625 3.40625-7.722657 7.675782-7.722657h.097656c4.269531 0 7.726562 3.457032 7.726562 7.722657 0 4.269531-3.457031 7.726562-7.726562 7.726562zm0 0" fill="#e29c6d"/><path d="m299.710938 447.777344c-4.269532 0-7.777344-3.457032-7.777344-7.726563 0-4.265625 3.40625-7.722656 7.675781-7.722656h.101563c4.265624 0 7.722656 3.457031 7.722656 7.722656 0 4.269531-3.457032 7.726563-7.722656 7.726563zm0 0" fill="#e29c6d"/><path d="m216.097656 471.554688c-4.265625 0-7.773437-3.460938-7.773437-7.726563s3.40625-7.726563 7.675781-7.726563h.097656c4.269532 0 7.726563 3.460938 7.726563 7.726563s-3.457031 7.726563-7.726563 7.726563zm0 0" fill="#c97f4c"/><g fill="#e29c6d"><path d="m216.050781 281.765625c-4.269531 0-7.777343-3.460937-7.777343-7.726563 0-4.265624 3.410156-7.726562 7.675781-7.726562h.101562c4.265625 0 7.722657 3.460938 7.722657 7.726562 0 4.265626-3.457032 7.726563-7.722657 7.726563zm0 0"/><path d="m115.539062 260.761719c-4.234374 0-7.730468-3.40625-7.777343-7.644531-.042969-4.269532 3.332031-7.761719 7.597656-7.808594h.101563.078124c4.230469 0 7.683594 3.40625 7.726563 7.648437.042969 4.265625-3.382813 7.761719-7.648437 7.804688-.027344 0-.054688 0-.078126 0zm0 0"/><path d="m133.453125 271.988281c-4.265625 0-7.773437-3.460937-7.773437-7.726562s3.410156-7.726563 7.675781-7.726563h.097656c4.269531 0 7.726563 3.460938 7.726563 7.726563s-3.457032 7.726562-7.726563 7.726562zm0 0"/></g><path d="m256 21.726562c-9.867188 0-19.339844-2.210937-28.152344-6.574218-3.824218-1.894532-5.386718-6.527344-3.496094-10.351563 1.894532-3.824219 6.53125-5.390625 10.351563-3.496093 6.664063 3.296874 13.828125 4.972656 21.296875 4.972656 7.464844 0 14.632812-1.675782 21.296875-4.972656 3.824219-1.894532 8.457031-.328126 10.351563 3.496093 1.890624 3.824219.328124 8.457031-3.5 10.351563-8.8125 4.363281-18.285157 6.574218-28.148438 6.574218zm0 0" fill="#bddff4"/><path d="m256 55.894531c-16.3125 0-31.964844-3.65625-46.535156-10.867187-3.824219-1.894532-5.386719-6.527344-3.496094-10.355469 1.894531-3.820313 6.527344-5.386719 10.351562-3.496094 12.417969 6.148438 25.769532 9.265625 39.679688 9.265625s27.261719-3.117187 39.675781-9.265625c3.824219-1.890625 8.460938-.324219 10.351563 3.496094 1.894531 3.824219.328125 8.460937-3.496094 10.355469-14.566406 7.210937-30.222656 10.867187-46.53125 10.867187zm0 0" fill="#bddff4"/><path d="m256 90.132812c-27.542969 0-53.984375-6.175781-78.582031-18.351562-3.824219-1.894531-5.390625-6.527344-3.496094-10.351562 1.894531-3.824219 6.527344-5.390626 10.351563-3.496094 22.449218 11.113281 46.582031 16.746094 71.726562 16.746094s49.277344-5.632813 71.726562-16.746094c3.824219-1.890625 8.457032-.328125 10.351563 3.496094 1.890625 3.824218.328125 8.460937-3.496094 10.351562-24.601562 12.175781-51.039062 18.351562-78.582031 18.351562zm0 0" fill="#bddff4"/></svg>