<svg xmlns="http://www.w3.org/2000/svg" xmlns:xlink="http://www.w3.org/1999/xlink" viewBox="0 0 551.8084 186.6148"><defs><style>.cls-1{isolation:isolate;}.cls-2{fill:url(#linear-gradient);}.cls-103,.cls-105,.cls-108,.cls-110,.cls-112,.cls-114,.cls-116,.cls-118,.cls-120,.cls-122,.cls-124,.cls-126,.cls-132,.cls-135,.cls-137,.cls-139,.cls-14,.cls-140,.cls-141,.cls-142,.cls-143,.cls-145,.cls-147,.cls-149,.cls-150,.cls-16,.cls-18,.cls-20,.cls-22,.cls-24,.cls-26,.cls-28,.cls-3,.cls-30,.cls-32,.cls-34,.cls-36,.cls-38,.cls-4,.cls-43,.cls-48,.cls-7,.cls-97,.cls-98{mix-blend-mode:multiply;}.cls-102,.cls-13,.cls-133,.cls-140,.cls-141,.cls-142,.cls-145,.cls-147,.cls-3,.cls-48,.cls-7,.cls-9{opacity:0.5;}.cls-3{fill:url(#linear-gradient-2);}.cls-4{fill:url(#linear-gradient-3);}.cls-5{fill:url(#linear-gradient-4);}.cls-6,.cls-7{fill:url(#linear-gradient-5);}.cls-8{fill:url(#linear-gradient-7);}.cls-133,.cls-146,.cls-9{fill:#fff;}.cls-10{fill:#3c3c3d;}.cls-11{fill:url(#radial-gradient);}.cls-102,.cls-12,.cls-13,.cls-133{mix-blend-mode:screen;}.cls-13{fill:url(#radial-gradient-2);}.cls-14{fill:url(#radial-gradient-3);}.cls-15{fill:url(#radial-gradient-4);}.cls-16{fill:url(#radial-gradient-5);}.cls-17{fill:url(#radial-gradient-6);}.cls-143,.cls-18,.cls-97,.cls-98{opacity:0.8;}.cls-19{fill:url(#radial-gradient-7);}.cls-20{fill:url(#radial-gradient-8);}.cls-21{fill:url(#radial-gradient-9);}.cls-22{fill:url(#radial-gradient-10);}.cls-23{fill:url(#radial-gradient-11);}.cls-24{fill:url(#radial-gradient-12);}.cls-25{fill:url(#radial-gradient-13);}.cls-26{fill:url(#radial-gradient-14);}.cls-27{fill:url(#radial-gradient-15);}.cls-28{fill:url(#radial-gradient-16);}.cls-29{fill:url(#radial-gradient-17);}.cls-30{fill:url(#radial-gradient-18);}.cls-31{fill:url(#radial-gradient-19);}.cls-32{fill:url(#radial-gradient-20);}.cls-33{fill:url(#radial-gradient-21);}.cls-34{fill:url(#radial-gradient-22);}.cls-35{fill:url(#radial-gradient-23);}.cls-36{fill:url(#radial-gradient-24);}.cls-37{fill:url(#radial-gradient-25);}.cls-38{fill:url(#radial-gradient-26);}.cls-39{fill:url(#radial-gradient-27);}.cls-40{fill:url(#linear-gradient-8);}.cls-41{fill:#8e9093;}.cls-42{fill:#525656;}.cls-43{fill:#d3d5d7;}.cls-44{fill:url(#linear-gradient-9);}.cls-45{fill:url(#linear-gradient-10);}.cls-46{fill:url(#linear-gradient-11);}.cls-47{fill:url(#linear-gradient-12);}.cls-48{fill:#646667;}.cls-49{fill:url(#linear-gradient-13);}.cls-50{fill:url(#linear-gradient-14);}.cls-51{fill:url(#linear-gradient-15);}.cls-52{fill:url(#linear-gradient-16);}.cls-53{fill:url(#linear-gradient-17);}.cls-54{fill:url(#linear-gradient-18);}.cls-55{fill:url(#linear-gradient-19);}.cls-56{fill:url(#linear-gradient-20);}.cls-57{fill:url(#linear-gradient-21);}.cls-58{fill:url(#linear-gradient-22);}.cls-59{fill:url(#linear-gradient-23);}.cls-60{fill:url(#linear-gradient-24);}.cls-61{fill:url(#linear-gradient-25);}.cls-62{fill:url(#linear-gradient-26);}.cls-63{fill:url(#linear-gradient-27);}.cls-64{fill:url(#linear-gradient-28);}.cls-65{fill:url(#linear-gradient-29);}.cls-66{fill:url(#linear-gradient-30);}.cls-67{fill:url(#linear-gradient-31);}.cls-68{fill:url(#linear-gradient-32);}.cls-69{fill:url(#linear-gradient-33);}.cls-70{fill:url(#linear-gradient-34);}.cls-71{fill:url(#linear-gradient-35);}.cls-72{fill:url(#linear-gradient-36);}.cls-73{fill:url(#linear-gradient-37);}.cls-74{fill:url(#linear-gradient-38);}.cls-75{fill:url(#linear-gradient-39);}.cls-76{fill:url(#linear-gradient-40);}.cls-77{fill:url(#linear-gradient-41);}.cls-78{fill:url(#linear-gradient-42);}.cls-79{fill:url(#linear-gradient-43);}.cls-80{fill:url(#linear-gradient-44);}.cls-81{fill:url(#linear-gradient-45);}.cls-82{fill:url(#linear-gradient-46);}.cls-83{fill:url(#linear-gradient-47);}.cls-84{fill:url(#linear-gradient-48);}.cls-85{fill:url(#linear-gradient-49);}.cls-86{fill:url(#linear-gradient-50);}.cls-87{fill:url(#linear-gradient-51);}.cls-88{fill:url(#linear-gradient-52);}.cls-89{fill:url(#linear-gradient-53);}.cls-90{fill:url(#linear-gradient-54);}.cls-91{fill:url(#linear-gradient-55);}.cls-92{fill:url(#linear-gradient-56);}.cls-93{fill:url(#linear-gradient-57);}.cls-94{fill:url(#linear-gradient-58);}.cls-95{fill:url(#linear-gradient-59);}.cls-96{fill:url(#linear-gradient-60);}.cls-97{fill:url(#linear-gradient-61);}.cls-98{fill:url(#linear-gradient-62);}.cls-99{fill:url(#radial-gradient-28);}.cls-100{fill:url(#radial-gradient-29);}.cls-101{fill:url(#radial-gradient-30);}.cls-102{fill:url(#radial-gradient-31);}.cls-103{fill:url(#radial-gradient-32);}.cls-104{fill:url(#radial-gradient-33);}.cls-105{fill:url(#radial-gradient-34);}.cls-106{fill:url(#radial-gradient-35);}.cls-107{fill:url(#radial-gradient-36);}.cls-108{fill:url(#radial-gradient-37);}.cls-109{fill:url(#radial-gradient-38);}.cls-110{fill:url(#radial-gradient-39);}.cls-111{fill:url(#radial-gradient-40);}.cls-112{fill:url(#radial-gradient-41);}.cls-113{fill:url(#radial-gradient-42);}.cls-114{fill:url(#radial-gradient-43);}.cls-115{fill:url(#radial-gradient-44);}.cls-116{fill:url(#radial-gradient-45);}.cls-117{fill:url(#radial-gradient-46);}.cls-118{fill:url(#radial-gradient-47);}.cls-119{fill:url(#radial-gradient-48);}.cls-120{fill:url(#radial-gradient-49);}.cls-121{fill:url(#radial-gradient-50);}.cls-122{fill:url(#radial-gradient-51);}.cls-123{fill:url(#radial-gradient-52);}.cls-124{fill:url(#radial-gradient-53);}.cls-125{fill:url(#radial-gradient-54);}.cls-126{fill:url(#radial-gradient-55);}.cls-127{fill:url(#radial-gradient-56);}.cls-128{fill:url(#linear-gradient-63);}.cls-129{fill:url(#linear-gradient-64);}.cls-130{fill:url(#linear-gradient-65);}.cls-131{fill:url(#linear-gradient-68);}.cls-132{fill:url(#linear-gradient-69);}.cls-134{fill:url(#linear-gradient-70);}.cls-135{fill:url(#linear-gradient-71);}.cls-136{fill:url(#linear-gradient-72);}.cls-138{fill:url(#linear-gradient-73);}.cls-139{fill:url(#linear-gradient-74);}.cls-140{fill:url(#linear-gradient-75);}.cls-141{fill:url(#linear-gradient-76);}.cls-142{fill:url(#linear-gradient-77);}.cls-143{fill:url(#linear-gradient-78);}.cls-144{fill:url(#linear-gradient-79);}.cls-145{fill:url(#linear-gradient-80);}.cls-146{opacity:0.2;}.cls-147,.cls-149{fill:#bfb9c3;}.cls-148{fill:url(#linear-gradient-81);}.cls-149{opacity:0.3;}.cls-150{fill:url(#radial-gradient-57);}.cls-151{fill:url(#radial-gradient-58);}.cls-152{fill:url(#radial-gradient-59);}.cls-153{fill:url(#linear-gradient-82);}</style><linearGradient id="linear-gradient" x1="3254.6833" y1="741.981" x2="3254.6833" y2="681.4328" gradientTransform="matrix(-1, 0, 0, 1, 3422.106, -551.3703)" gradientUnits="userSpaceOnUse"><stop offset="0" stop-color="#b6b8b9"/><stop offset="0.1218" stop-color="#989a9b"/><stop offset="0.316" stop-color="#6f7171"/><stop offset="0.5054" stop-color="#4f5150"/><stop offset="0.6863" stop-color="#383a39"/><stop offset="0.8552" stop-color="#2a2c2b"/><stop offset="1" stop-color="#252726"/></linearGradient><linearGradient id="linear-gradient-2" x1="3254.6833" y1="715.9751" x2="3254.6833" y2="663.3023" gradientTransform="matrix(-1, 0, 0, 1, 3699.4863, 0)" gradientUnits="userSpaceOnUse"><stop offset="0" stop-color="#b6b8b9"/><stop offset="1" stop-color="#252726"/></linearGradient><linearGradient id="linear-gradient-3" x1="3116.5947" y1="705.1622" x2="3116.5947" y2="662.2834" xlink:href="#linear-gradient-2"/><linearGradient id="linear-gradient-4" x1="3116.228" y1="702.413" x2="3116.228" y2="664.6039" xlink:href="#linear-gradient-2"/><linearGradient id="linear-gradient-5" x1="3063.92" y1="706.1334" x2="3063.92" y2="662.4834" gradientTransform="matrix(-1, 0, 0, 1, 3422.106, -551.3703)" xlink:href="#linear-gradient-2"/><linearGradient id="linear-gradient-7" x1="3414.1616" y1="651.8194" x2="3414.1616" y2="708.064" gradientTransform="matrix(-1, 0, 0, 1, 3699.4863, 0)" gradientUnits="userSpaceOnUse"><stop offset="0.0286" stop-color="#fff"/><stop offset="0.4551" stop-color="#b6b8b9"/><stop offset="1" stop-color="#7a7a7c"/></linearGradient><radialGradient id="radial-gradient" cx="3357.4654" cy="705.3074" r="38.0224" gradientTransform="matrix(-1, 0, 0, 1, 3699.4863, 0)" gradientUnits="userSpaceOnUse"><stop offset="0.394" stop-color="#1e211d"/><stop offset="0.5076" stop-color="#232622"/><stop offset="0.6443" stop-color="#323330"/><stop offset="0.7925" stop-color="#4a4a47"/><stop offset="0.8714" stop-color="#5a5956"/><stop offset="0.9023" stop-color="#5d5c59"/><stop offset="0.9284" stop-color="#686764"/><stop offset="0.9527" stop-color="#797875"/><stop offset="0.976" stop-color="#91908e"/><stop offset="0.9983" stop-color="#b0afad"/><stop offset="1" stop-color="#b3b2b0"/></radialGradient><radialGradient id="radial-gradient-2" cx="3357.459" cy="704.8693" r="36.8736" gradientTransform="matrix(-1, 0, 0, 1, 3699.4863, 0)" gradientUnits="userSpaceOnUse"><stop offset="0.394" stop-color="#1e211d"/><stop offset="0.4692" stop-color="#232622"/><stop offset="0.5597" stop-color="#323330"/><stop offset="0.6577" stop-color="#4a4a47"/><stop offset="0.7099" stop-color="#5a5956"/><stop offset="0.7581" stop-color="#6a6966"/><stop offset="0.8517" stop-color="#92918f"/><stop offset="0.918" stop-color="#b3b2b0"/></radialGradient><radialGradient id="radial-gradient-3" cx="3357.4718" cy="705.3697" r="24.6559" gradientTransform="matrix(-1, 0, 0, 1, 3699.4863, 0)" gradientUnits="userSpaceOnUse"><stop offset="0.394" stop-color="#1e211d"/><stop offset="0.4692" stop-color="#232622"/><stop offset="0.5597" stop-color="#323330"/><stop offset="0.6577" stop-color="#4a4a47"/><stop offset="0.7099" stop-color="#5a5956"/><stop offset="0.7824" stop-color="#5d5c59"/><stop offset="0.8407" stop-color="#676663"/><stop offset="0.894" stop-color="#787774"/><stop offset="0.9444" stop-color="#8f8e8c"/><stop offset="0.9923" stop-color="#adacaa"/><stop offset="1" stop-color="#b3b2b0"/></radialGradient><radialGradient id="radial-gradient-4" cx="3357.186" cy="705.245" r="20.8887" gradientTransform="matrix(-1, 0, 0, 1, 3699.4863, 0)" gradientUnits="userSpaceOnUse"><stop offset="0" stop-color="#fff"/><stop offset="0.2702" stop-color="#fff"/><stop offset="0.3809" stop-color="#fdfcfd"/><stop offset="0.4508" stop-color="#f5f4f5"/><stop offset="0.5093" stop-color="#e7e5e9"/><stop offset="0.5613" stop-color="#d5d1d7"/><stop offset="0.6043" stop-color="#bfb9c3"/><stop offset="0.6227" stop-color="#c8c3cc"/><stop offset="0.6793" stop-color="#e0dde2"/><stop offset="0.7374" stop-color="#f1f0f2"/><stop offset="0.7974" stop-color="#fcfbfc"/><stop offset="0.8623" stop-color="#fff"/><stop offset="0.9069" stop-color="#fdfcfd"/><stop offset="0.936" stop-color="#f5f4f5"/><stop offset="0.9605" stop-color="#e7e5e8"/><stop offset="0.9825" stop-color="#d4d0d7"/><stop offset="1" stop-color="#bfb9c3"/></radialGradient><radialGradient id="radial-gradient-5" cx="3357.186" cy="705.245" r="18.2408" xlink:href="#radial-gradient-4"/><radialGradient id="radial-gradient-6" cx="3353.2709" cy="698.7897" r="25.919" gradientTransform="matrix(-1, 0, 0, 1, 3699.4863, 0)" gradientUnits="userSpaceOnUse"><stop offset="0" stop-color="#fff"/><stop offset="0.1752" stop-color="#f3f2f4"/><stop offset="0.5003" stop-color="#d3cfd6"/><stop offset="0.678" stop-color="#bfb9c3"/><stop offset="0.6908" stop-color="#bfb9c3"/><stop offset="1" stop-color="#bfb9c3"/></radialGradient><radialGradient id="radial-gradient-7" cx="3353.2709" cy="698.7822" r="25.9236" xlink:href="#radial-gradient-6"/><radialGradient id="radial-gradient-8" cx="3357.4718" cy="705.1641" r="6.5021" xlink:href="#radial-gradient-4"/><radialGradient id="radial-gradient-9" cx="3356.152" cy="702.9677" r="8.8202" gradientTransform="matrix(-1, 0, 0, 1, 3422.106, -551.3703)" xlink:href="#radial-gradient-6"/><radialGradient id="radial-gradient-10" cx="3357.4839" cy="705.1648" r="3.2323" gradientTransform="matrix(-1, 0, 0, 1, 3422.106, -551.3703)" xlink:href="#radial-gradient-4"/><radialGradient id="radial-gradient-11" cx="3356.8209" cy="704.0711" r="4.3905" gradientTransform="matrix(-1, 0, 0, 1, 3422.106, -551.3703)" xlink:href="#radial-gradient-6"/><radialGradient id="radial-gradient-12" cx="3371.4701" cy="705.1648" r="2.0512" xlink:href="#radial-gradient-4"/><radialGradient id="radial-gradient-13" cx="3371.0366" cy="704.4704" r="2.7871" xlink:href="#radial-gradient-6"/><radialGradient id="radial-gradient-14" cx="3343.4919" cy="705.1648" r="2.0541" xlink:href="#radial-gradient-4"/><radialGradient id="radial-gradient-15" cx="3343.0646" cy="704.4704" r="2.7876" gradientTransform="matrix(-1, 0, 0, 1, 3422.106, -551.3703)" xlink:href="#radial-gradient-6"/><radialGradient id="radial-gradient-16" cx="574.0479" cy="-2000.9679" r="2.0512" gradientTransform="matrix(0, 1, 1, 0, 2342.9824, 145.1025)" xlink:href="#radial-gradient-4"/><radialGradient id="radial-gradient-17" cx="573.627" cy="-2001.6655" r="2.7821" gradientTransform="matrix(0, 1, 1, 0, 2342.9824, 145.1025)" xlink:href="#radial-gradient-6"/><radialGradient id="radial-gradient-18" cx="546.076" cy="-2000.9679" r="2.0515" gradientTransform="matrix(0, 1, 1, 0, 2342.9824, 145.1025)" xlink:href="#radial-gradient-4"/><radialGradient id="radial-gradient-19" cx="545.6508" cy="-2001.6655" r="2.7778" gradientTransform="matrix(0, 1, 1, 0, 2342.9824, 145.1025)" xlink:href="#radial-gradient-6"/><radialGradient id="radial-gradient-20" cx="-1358.318" cy="-1162.657" r="2.0484" gradientTransform="matrix(0.7071, 0.7071, 0.7071, -0.7071, 2134.4856, 853.4063)" xlink:href="#radial-gradient-4"/><radialGradient id="radial-gradient-21" cx="-1358.74" cy="-1163.353" r="2.7943" gradientTransform="matrix(0.7071, 0.7071, 0.7071, -0.7071, 2134.4856, 853.4063)" xlink:href="#radial-gradient-6"/><radialGradient id="radial-gradient-22" cx="-1386.2944" cy="-1162.6611" r="2.0525" gradientTransform="matrix(0.7071, 0.7071, 0.7071, -0.7071, 2134.4856, 853.4063)" xlink:href="#radial-gradient-4"/><radialGradient id="radial-gradient-23" cx="-1386.7158" cy="-1163.3558" r="2.7874" gradientTransform="matrix(0.7071, 0.7071, 0.7071, -0.7071, 2134.4856, 853.4063)" xlink:href="#radial-gradient-6"/><radialGradient id="radial-gradient-24" cx="-1293.7742" cy="2728.9704" r="2.0485" gradientTransform="matrix(0.7071, -0.7071, -0.7071, -0.7071, 3196.3867, 1710.1023)" xlink:href="#radial-gradient-4"/><radialGradient id="radial-gradient-25" cx="-1294.1961" cy="2728.2742" r="2.7943" gradientTransform="matrix(0.7071, -0.7071, -0.7071, -0.7071, 3196.3867, 1710.1023)" xlink:href="#radial-gradient-6"/><radialGradient id="radial-gradient-26" cx="-1321.7505" cy="2728.9743" r="2.0525" gradientTransform="matrix(0.7071, -0.7071, -0.7071, -0.7071, 2919.0064, 1158.732)" xlink:href="#radial-gradient-4"/><radialGradient id="radial-gradient-27" cx="-1322.1719" cy="2728.2804" r="2.7874" gradientTransform="matrix(0.7071, -0.7071, -0.7071, -0.7071, 3196.3867, 1710.1023)" xlink:href="#radial-gradient-6"/><linearGradient id="linear-gradient-8" x1="3223.4422" y1="649.0079" x2="3223.4422" y2="667.9965" gradientTransform="matrix(-1, 0, 0, 1, 3422.106, -551.3703)" xlink:href="#linear-gradient-7"/><linearGradient id="linear-gradient-9" x1="3415.2188" y1="659.1596" x2="3422.106" y2="659.1596" gradientTransform="matrix(-1, 0, 0, 1, 3422.106, -551.3703)" xlink:href="#linear-gradient-7"/><linearGradient id="linear-gradient-10" x1="3024.6538" y1="659.1596" x2="3031.5409" y2="659.1596" gradientTransform="matrix(-1, 0, 0, 1, 3422.106, -551.3703)" xlink:href="#linear-gradient-7"/><linearGradient id="linear-gradient-11" x1="3223.4295" y1="651.5506" x2="3223.4295" y2="653.3097" gradientTransform="matrix(-1, 0, 0, 1, 3422.106, -551.3703)" xlink:href="#linear-gradient-7"/><linearGradient id="linear-gradient-12" x1="3223.4295" y1="665.3471" x2="3223.4295" y2="666.6821" gradientTransform="matrix(-1, 0, 0, 1, 3422.106, -551.3703)" xlink:href="#linear-gradient-7"/><linearGradient id="linear-gradient-13" x1="531.8223" y1="-2259.1834" x2="532.411" y2="-2257.4426" gradientTransform="matrix(0, 1, 1, 0, 2674.1406, 131.3457)" gradientUnits="userSpaceOnUse"><stop offset="0" stop-color="#5f6161"/><stop offset="0.3096" stop-color="#757575"/><stop offset="0.4099" stop-color="#7d7c7d"/><stop offset="1" stop-color="#2f3130"/></linearGradient><linearGradient id="linear-gradient-14" x1="531.7731" y1="-2258.2732" x2="532.4325" y2="-2258.2732" gradientTransform="matrix(0, 1, 1, 0, 2674.1406, 131.3457)" gradientUnits="userSpaceOnUse"><stop offset="0" stop-color="#3c3f3e"/><stop offset="1"/></linearGradient><linearGradient id="linear-gradient-15" x1="532.0151" y1="-2258.646" x2="532.2154" y2="-2258.104" gradientTransform="matrix(0, 1, 1, 0, 2674.1406, 131.3457)" gradientUnits="userSpaceOnUse"><stop offset="0" stop-color="#5f6161"/><stop offset="0.491" stop-color="#4a4c4b"/><stop offset="1" stop-color="#2f3130"/></linearGradient><linearGradient id="linear-gradient-16" x1="531.8192" y1="-2235.5228" x2="532.408" y2="-2233.782" xlink:href="#linear-gradient-13"/><linearGradient id="linear-gradient-17" x1="531.7731" y1="-2234.615" x2="532.4325" y2="-2234.615" xlink:href="#linear-gradient-14"/><linearGradient id="linear-gradient-18" x1="532.0179" y1="-2234.9766" x2="532.2146" y2="-2234.4444" xlink:href="#linear-gradient-15"/><linearGradient id="linear-gradient-19" x1="531.822" y1="-2211.8557" x2="532.4079" y2="-2210.1234" xlink:href="#linear-gradient-13"/><linearGradient id="linear-gradient-20" x1="531.7731" y1="-2210.9511" x2="532.4325" y2="-2210.9511" xlink:href="#linear-gradient-14"/><linearGradient id="linear-gradient-21" x1="532.0191" y1="-2211.3077" x2="532.2155" y2="-2210.7764" xlink:href="#linear-gradient-15"/><linearGradient id="linear-gradient-22" x1="531.8216" y1="-2188.1958" x2="532.4103" y2="-2186.4551" xlink:href="#linear-gradient-13"/><linearGradient id="linear-gradient-23" x1="531.7731" y1="-2187.2802" x2="532.4325" y2="-2187.2802" xlink:href="#linear-gradient-14"/><linearGradient id="linear-gradient-24" x1="532.0166" y1="-2187.6479" x2="532.2164" y2="-2187.1069" xlink:href="#linear-gradient-15"/><linearGradient id="linear-gradient-25" x1="531.8189" y1="-2164.5361" x2="532.4112" y2="-2162.785" xlink:href="#linear-gradient-13"/><linearGradient id="linear-gradient-26" x1="531.7731" y1="-2163.6156" x2="532.4325" y2="-2163.6156" xlink:href="#linear-gradient-14"/><linearGradient id="linear-gradient-27" x1="532.017" y1="-2163.9886" x2="532.2169" y2="-2163.4476" xlink:href="#linear-gradient-15"/><linearGradient id="linear-gradient-28" x1="531.8192" y1="-2140.8661" x2="532.4051" y2="-2139.1339" xlink:href="#linear-gradient-13"/><linearGradient id="linear-gradient-29" x1="531.7731" y1="-2139.9638" x2="532.4325" y2="-2139.9638" xlink:href="#linear-gradient-14"/><linearGradient id="linear-gradient-30" x1="532.0186" y1="-2140.3199" x2="532.2149" y2="-2139.7888" gradientTransform="matrix(0, 1, 1, 0, 2396.7603, -420.0246)" xlink:href="#linear-gradient-15"/><linearGradient id="linear-gradient-31" x1="531.5831" y1="-2375.2334" x2="532.175" y2="-2373.4833" xlink:href="#linear-gradient-13"/><linearGradient id="linear-gradient-32" x1="531.5503" y1="-2374.314" x2="532.197" y2="-2374.314" xlink:href="#linear-gradient-14"/><linearGradient id="linear-gradient-33" x1="531.7861" y1="-2374.6891" x2="531.9858" y2="-2374.1487" xlink:href="#linear-gradient-15"/><linearGradient id="linear-gradient-34" x1="531.5831" y1="-2352.1356" x2="532.1721" y2="-2350.394" xlink:href="#linear-gradient-13"/><linearGradient id="linear-gradient-35" x1="531.5503" y1="-2351.2274" x2="532.197" y2="-2351.2274" xlink:href="#linear-gradient-14"/><linearGradient id="linear-gradient-36" x1="531.787" y1="-2351.5915" x2="531.9833" y2="-2351.0601" xlink:href="#linear-gradient-15"/><linearGradient id="linear-gradient-37" x1="531.5838" y1="-2329.0367" x2="532.1722" y2="-2327.2971" xlink:href="#linear-gradient-13"/><linearGradient id="linear-gradient-38" x1="531.5503" y1="-2328.1294" x2="532.197" y2="-2328.1294" xlink:href="#linear-gradient-14"/><linearGradient id="linear-gradient-39" x1="531.787" y1="-2328.4924" x2="531.9834" y2="-2327.9608" xlink:href="#linear-gradient-15"/><linearGradient id="linear-gradient-40" x1="531.586" y1="-2305.9409" x2="532.1718" y2="-2304.2089" xlink:href="#linear-gradient-13"/><linearGradient id="linear-gradient-41" x1="531.5503" y1="-2305.0364" x2="532.197" y2="-2305.0364" gradientTransform="matrix(0, 1, 1, 0, 2396.7603, -420.0246)" xlink:href="#linear-gradient-14"/><linearGradient id="linear-gradient-42" x1="531.7873" y1="-2305.3957" x2="531.9841" y2="-2304.8631" xlink:href="#linear-gradient-15"/><linearGradient id="linear-gradient-43" x1="531.5889" y1="-2282.8429" x2="532.1744" y2="-2281.1118" xlink:href="#linear-gradient-13"/><linearGradient id="linear-gradient-44" x1="531.5503" y1="-2281.9377" x2="532.197" y2="-2281.9377" xlink:href="#linear-gradient-14"/><linearGradient id="linear-gradient-45" x1="531.7874" y1="-2282.2966" x2="531.9842" y2="-2281.7638" xlink:href="#linear-gradient-15"/><linearGradient id="linear-gradient-46" x1="531.583" y1="-2115.5037" x2="532.1749" y2="-2113.7536" xlink:href="#linear-gradient-13"/><linearGradient id="linear-gradient-47" x1="531.5503" y1="-2114.5838" x2="532.197" y2="-2114.5838" xlink:href="#linear-gradient-14"/><linearGradient id="linear-gradient-48" x1="531.7841" y1="-2114.9586" x2="531.9841" y2="-2114.4172" xlink:href="#linear-gradient-15"/><linearGradient id="linear-gradient-49" x1="531.5831" y1="-2092.4045" x2="532.175" y2="-2090.6544" xlink:href="#linear-gradient-13"/><linearGradient id="linear-gradient-50" x1="531.5503" y1="-2091.4914" x2="532.197" y2="-2091.4914" xlink:href="#linear-gradient-14"/><linearGradient id="linear-gradient-51" x1="531.7861" y1="-2091.8602" x2="531.9858" y2="-2091.3198" xlink:href="#linear-gradient-15"/><linearGradient id="linear-gradient-52" x1="531.5849" y1="-2069.3077" x2="532.1707" y2="-2067.5757" xlink:href="#linear-gradient-13"/><linearGradient id="linear-gradient-53" x1="531.5503" y1="-2068.3992" x2="532.197" y2="-2068.3992" xlink:href="#linear-gradient-14"/><linearGradient id="linear-gradient-54" x1="531.787" y1="-2068.7627" x2="531.9833" y2="-2068.2312" xlink:href="#linear-gradient-15"/><linearGradient id="linear-gradient-55" x1="531.5846" y1="-2046.2085" x2="532.1698" y2="-2044.4784" xlink:href="#linear-gradient-13"/><linearGradient id="linear-gradient-56" x1="531.5503" y1="-2045.3068" x2="532.197" y2="-2045.3068" gradientTransform="matrix(0, 1, 1, 0, 2396.7603, -420.0246)" xlink:href="#linear-gradient-14"/><linearGradient id="linear-gradient-57" x1="531.7871" y1="-2045.6635" x2="531.9835" y2="-2045.132" xlink:href="#linear-gradient-15"/><linearGradient id="linear-gradient-58" x1="531.583" y1="-2023.1332" x2="532.175" y2="-2021.3831" xlink:href="#linear-gradient-13"/><linearGradient id="linear-gradient-59" x1="531.5503" y1="-2022.2075" x2="532.197" y2="-2022.2075" xlink:href="#linear-gradient-14"/><linearGradient id="linear-gradient-60" x1="531.787" y1="-2022.5653" x2="531.9833" y2="-2022.0338" xlink:href="#linear-gradient-15"/><linearGradient id="linear-gradient-61" x1="3026.3443" y1="672.1262" x2="3036.5885" y2="672.1262" xlink:href="#linear-gradient-2"/><linearGradient id="linear-gradient-62" x1="3036.9615" y1="672.0205" x2="3047.1802" y2="672.0205" xlink:href="#linear-gradient-2"/><radialGradient id="radial-gradient-28" cx="3042.046" cy="671.9772" r="4.2612" gradientTransform="matrix(-1, 0, 0, 1, 3699.4863, 0)" gradientUnits="userSpaceOnUse"><stop offset="0" stop-color="#ef6624"/><stop offset="1" stop-color="#f4ea0b"/></radialGradient><radialGradient id="radial-gradient-29" cx="3031.4537" cy="672.0644" r="4.2612" gradientTransform="matrix(-1, 0, 0, 1, 3699.4863, 0)" gradientUnits="userSpaceOnUse"><stop offset="0" stop-color="#f4ea0b"/><stop offset="1" stop-color="#ea2427"/></radialGradient><radialGradient id="radial-gradient-30" cx="2985.4683" cy="705.3074" r="38.0191" xlink:href="#radial-gradient"/><radialGradient id="radial-gradient-31" cx="2985.4556" cy="704.8693" r="36.8597" xlink:href="#radial-gradient-2"/><radialGradient id="radial-gradient-32" cx="2985.4556" cy="705.3697" r="24.6556" xlink:href="#radial-gradient-3"/><radialGradient id="radial-gradient-33" cx="2985.1818" cy="705.245" r="20.8951" xlink:href="#radial-gradient-4"/><radialGradient id="radial-gradient-34" cx="2985.1818" cy="705.245" r="18.2408" xlink:href="#radial-gradient-4"/><radialGradient id="radial-gradient-35" cx="2981.2545" cy="698.7897" r="25.9194" xlink:href="#radial-gradient-6"/><radialGradient id="radial-gradient-36" cx="2981.2545" cy="698.7822" r="25.9241" xlink:href="#radial-gradient-6"/><radialGradient id="radial-gradient-37" cx="2985.4804" cy="705.1641" r="6.5021" xlink:href="#radial-gradient-4"/><radialGradient id="radial-gradient-38" cx="2984.136" cy="702.9677" r="8.8197" xlink:href="#radial-gradient-6"/><radialGradient id="radial-gradient-39" cx="2985.4683" cy="705.1648" r="3.2322" xlink:href="#radial-gradient-4"/><radialGradient id="radial-gradient-40" cx="2984.8045" cy="704.0711" r="4.391" xlink:href="#radial-gradient-6"/><radialGradient id="radial-gradient-41" cx="2999.4539" cy="705.1648" r="2.0509" xlink:href="#radial-gradient-4"/><radialGradient id="radial-gradient-42" cx="2999.0452" cy="704.4704" r="2.7871" xlink:href="#radial-gradient-6"/><radialGradient id="radial-gradient-43" cx="2971.482" cy="705.1648" r="2.0512" xlink:href="#radial-gradient-4"/><radialGradient id="radial-gradient-44" cx="2971.0732" cy="704.4704" r="2.7876" xlink:href="#radial-gradient-6"/><radialGradient id="radial-gradient-45" cx="574.0479" cy="-1628.9765" r="2.0512" gradientTransform="matrix(0, 1, 1, 0, 2342.9824, 145.1025)" xlink:href="#radial-gradient-4"/><radialGradient id="radial-gradient-46" cx="573.627" cy="-1629.6579" r="2.787" gradientTransform="matrix(0, 1, 1, 0, 2342.9824, 145.1025)" xlink:href="#radial-gradient-6"/><radialGradient id="radial-gradient-47" cx="546.076" cy="-1628.9765" r="2.0515" gradientTransform="matrix(0, 1, 1, 0, 2342.9824, 145.1025)" xlink:href="#radial-gradient-4"/><radialGradient id="radial-gradient-48" cx="545.6508" cy="-1629.6579" r="2.7827" gradientTransform="matrix(0, 1, 1, 0, 2342.9824, 145.1025)" xlink:href="#radial-gradient-6"/><radialGradient id="radial-gradient-49" cx="-1095.2729" cy="-899.6119" r="2.0525" gradientTransform="matrix(0.7071, 0.7071, 0.7071, -0.7071, 1857.1053, 302.036)" xlink:href="#radial-gradient-4"/><radialGradient id="radial-gradient-50" cx="-1095.6942" cy="-900.3067" r="2.7874" gradientTransform="matrix(0.7071, 0.7071, 0.7071, -0.7071, 2134.4856, 853.4063)" xlink:href="#radial-gradient-6"/><radialGradient id="radial-gradient-51" cx="-1123.2373" cy="-899.6038" r="2.0525" gradientTransform="matrix(0.7071, 0.7071, 0.7071, -0.7071, 2134.4856, 853.4063)" xlink:href="#radial-gradient-4"/><radialGradient id="radial-gradient-52" cx="-1123.6687" cy="-900.3101" r="2.8012" gradientTransform="matrix(0.7071, 0.7071, 0.7071, -0.7071, 2134.4856, 853.4063)" xlink:href="#radial-gradient-6"/><radialGradient id="radial-gradient-53" cx="-1030.7291" cy="2465.9251" r="2.0525" gradientTransform="matrix(0.7071, -0.7071, -0.7071, -0.7071, 3196.3867, 1710.1023)" xlink:href="#radial-gradient-4"/><radialGradient id="radial-gradient-54" cx="-1031.1504" cy="2465.2312" r="2.7874" gradientTransform="matrix(0.7071, -0.7071, -0.7071, -0.7071, 3196.3867, 1710.1023)" xlink:href="#radial-gradient-6"/><radialGradient id="radial-gradient-55" cx="-1058.6934" cy="2465.9171" r="2.0525" gradientTransform="matrix(0.7071, -0.7071, -0.7071, -0.7071, 2919.0064, 1158.732)" xlink:href="#radial-gradient-4"/><radialGradient id="radial-gradient-56" cx="-1059.1248" cy="2465.2278" r="2.8012" gradientTransform="matrix(0.7071, -0.7071, -0.7071, -0.7071, 3196.3867, 1710.1023)" xlink:href="#radial-gradient-6"/><linearGradient id="linear-gradient-63" x1="2973.4838" y1="548.2184" x2="2981.0108" y2="574.9047" gradientTransform="matrix(-1, 0, 0, 1, 3699.4863, 0)" gradientUnits="userSpaceOnUse"><stop offset="0.0286" stop-color="#fff"/><stop offset="0.2552" stop-color="#dcdddd"/><stop offset="0.4761" stop-color="#c0c2c3"/><stop offset="0.6044" stop-color="#b6b8b9"/><stop offset="0.7002" stop-color="#b2b4b5"/><stop offset="0.8054" stop-color="#a5a6a8"/><stop offset="0.9147" stop-color="#909092"/><stop offset="1" stop-color="#7a7a7c"/></linearGradient><linearGradient id="linear-gradient-64" x1="3008.6656" y1="616.3441" x2="3020.7277" y2="616.3441" xlink:href="#linear-gradient-7"/><linearGradient id="linear-gradient-65" x1="3014.904" y1="752.1709" x2="2905.5743" y2="563.1425" gradientTransform="matrix(-1, 0, 0, 1, 3699.4863, 0)" gradientUnits="userSpaceOnUse"><stop offset="0" stop-color="#bfb9c3"/><stop offset="0.3799" stop-color="#bfb9c3"/><stop offset="0.3957" stop-color="#bfb9c3"/><stop offset="0.5707" stop-color="#dddadf"/><stop offset="0.7482" stop-color="#f6f5f6"/><stop offset="0.8526" stop-color="#fff"/><stop offset="0.8876" stop-color="#fbfbfc"/><stop offset="0.923" stop-color="#f0eff1"/><stop offset="0.9586" stop-color="#dedbe0"/><stop offset="0.9942" stop-color="#c4bec8"/><stop offset="1" stop-color="#bfb9c3"/></linearGradient><linearGradient id="linear-gradient-68" x1="2939.1029" y1="572.2434" x2="2967.9531" y2="641.9102" gradientTransform="matrix(-1, 0, 0, 1, 3699.4863, 0)" gradientUnits="userSpaceOnUse"><stop offset="0" stop-color="#a5dce7"/><stop offset="0.2803" stop-color="#99d9ea"/><stop offset="0.7847" stop-color="#7ad2f1"/><stop offset="1" stop-color="#6acef5"/></linearGradient><linearGradient id="linear-gradient-69" x1="2898.3673" y1="609.9853" x2="3011.6698" y2="609.9853" xlink:href="#linear-gradient-68"/><linearGradient id="linear-gradient-70" x1="2929.8915" y1="572.4839" x2="2831.2526" y2="756.3283" xlink:href="#linear-gradient-68"/><linearGradient id="linear-gradient-71" x1="2887.0801" y1="608.1396" x2="2934.6442" y2="608.1396" xlink:href="#linear-gradient-68"/><linearGradient id="linear-gradient-72" x1="2999.9349" y1="624.0712" x2="2999.9349" y2="634.4197" gradientTransform="matrix(-1, 0, 0, 1, 3699.4863, 0)" gradientUnits="userSpaceOnUse"><stop offset="0" stop-color="#bfb9c3"/><stop offset="0.0058" stop-color="#c4bec8"/><stop offset="0.0414" stop-color="#dedbe0"/><stop offset="0.077" stop-color="#f0eff1"/><stop offset="0.1124" stop-color="#fbfbfc"/><stop offset="0.1474" stop-color="#fff"/><stop offset="0.2989" stop-color="#fdfcfd"/><stop offset="0.3944" stop-color="#f5f4f5"/><stop offset="0.4744" stop-color="#e7e5e9"/><stop offset="0.5455" stop-color="#d5d1d7"/><stop offset="0.6043" stop-color="#bfb9c3"/><stop offset="0.6201" stop-color="#bfb9c3"/><stop offset="1" stop-color="#bfb9c3"/></linearGradient><linearGradient id="linear-gradient-73" x1="3000.3368" y1="624.0331" x2="3000.3368" y2="634.4208" xlink:href="#linear-gradient-72"/><linearGradient id="linear-gradient-74" x1="2999.9385" y1="623.4158" x2="2999.9385" y2="634.7124" xlink:href="#linear-gradient-72"/><linearGradient id="linear-gradient-75" x1="3004.0162" y1="758.4615" x2="2894.6958" y2="569.4491" xlink:href="#linear-gradient-65"/><linearGradient id="linear-gradient-76" x1="3005.4065" y1="616.3441" x2="3027.5495" y2="616.3441" xlink:href="#linear-gradient-65"/><linearGradient id="linear-gradient-77" x1="2973.485" y1="548.2235" x2="2981.0105" y2="574.9047" xlink:href="#linear-gradient-65"/><linearGradient id="linear-gradient-78" x1="2926.8378" y1="722.1977" x2="2926.8378" y2="679.2187" xlink:href="#linear-gradient-65"/><linearGradient id="linear-gradient-79" x1="2859.0759" y1="706.8565" x2="2939.9168" y2="706.8565" xlink:href="#linear-gradient-2"/><linearGradient id="linear-gradient-80" x1="2859.0644" y1="714.5457" x2="2939.9169" y2="714.5457" xlink:href="#linear-gradient-2"/><linearGradient id="linear-gradient-81" x1="2887.3915" y1="628.5982" x2="2871.6553" y2="628.5982" gradientTransform="matrix(-1, 0, 0, 1, 3699.4863, 0)" gradientUnits="userSpaceOnUse"><stop offset="0" stop-color="#bfb9c3"/><stop offset="0.0119" stop-color="#bfb9c3"/><stop offset="0.2865" stop-color="#bfb9c3"/><stop offset="0.5033" stop-color="#dddadf"/><stop offset="0.7233" stop-color="#f6f5f6"/><stop offset="0.8526" stop-color="#fff"/><stop offset="0.8876" stop-color="#fbfbfc"/><stop offset="0.923" stop-color="#f0eff1"/><stop offset="0.9586" stop-color="#dedbe0"/><stop offset="0.9942" stop-color="#c4bec8"/><stop offset="1" stop-color="#bfb9c3"/></linearGradient><radialGradient id="radial-gradient-57" cx="4479.237" cy="664.269" r="2.8367" gradientTransform="matrix(-0.6364, 0, 0, 1, 3659.4485, 0)" xlink:href="#radial-gradient-4"/><radialGradient id="radial-gradient-58" cx="2889.0719" cy="663.9993" r="4.1899" gradientTransform="matrix(-1, 0, 0, 1, 3699.4863, 0)" gradientUnits="userSpaceOnUse"><stop offset="0" stop-color="#fff"/><stop offset="0.0324" stop-color="#f9f8f9"/><stop offset="0.1922" stop-color="#e0dde2"/><stop offset="0.3532" stop-color="#cdc9d1"/><stop offset="0.5148" stop-color="#c3bdc6"/><stop offset="0.678" stop-color="#bfb9c3"/><stop offset="0.6908" stop-color="#bfb9c3"/><stop offset="1" stop-color="#bfb9c3"/></radialGradient><radialGradient id="radial-gradient-59" cx="4478.6244" cy="663.2601" r="4.0451" gradientTransform="matrix(-0.6364, 0, 0, 1, 3659.4485, 0)" xlink:href="#radial-gradient-6"/><linearGradient id="linear-gradient-82" x1="2858.536" y1="647.9885" x2="2889.8427" y2="647.8245" gradientTransform="matrix(-1, 0, 0, 1, 3699.4863, 0)" gradientUnits="userSpaceOnUse"><stop offset="0" stop-color="#bfb9c3"/><stop offset="0.0144" stop-color="#c4bec8"/><stop offset="0.1027" stop-color="#dedbe0"/><stop offset="0.1912" stop-color="#f0eff1"/><stop offset="0.2792" stop-color="#fbfbfc"/><stop offset="0.3662" stop-color="#fff"/><stop offset="0.654" stop-color="#bfb9c3"/><stop offset="1" stop-color="#bfb9c3"/></linearGradient></defs><g class="cls-1"><g id="Layer_1" data-name="Layer 1"><rect x="353.144" y="102.0403" width="96.1745" height="37.3205"/><polygon class="cls-2" points="319.019 111.873 323.208 150.612 326.49 154.254 27.201 154.254 27.201 137.049 8.355 137.049 8.355 111.973 319.019 111.873"/><path class="cls-3" d="M565.8539,663.269c-.6225-2.0636-1.007-3.37-1.007-3.37l11.3619-2.0764s.3985,2.275.97,5.4334l19.22-.0128,2.5487,23.6086h1.9885l-.0242,9.8839h-.895l.5716,5.2462,3.2819,3.6421H595.778v-5.83c0-2.4111-1.007-3.0082-4.5257-3.0082-.2368,0-.485-.0254-.7587-.05h-5.6689c-4.4136,0-8.4784.0865-10.7915-6.8872-.9446-2.8223-2.6352-8.2684-4.3-13.75a13.4281,13.4281,0,0,1-.8963-2.4239s-.6581-3.6065-11.3122-3.6065H385.0668c-5.8929,0-5.57,4.5881.1744,13.9245,3.3316,5.4448,4.5,14.7189,4.028,21.6315H304.5814V688.4192h-6.215c.9943-3.8917,3.1317-10.4809,7.0361-14.1728,5.7936-5.47-.4354-4.6376-5.6688-4.7242-6.0419-.112-9.5237.2113-9.5237,5.1342v13.7628h-4.4747V663.3428Z" transform="translate(-277.3803 -551.3703)"/><path class="cls-4" d="M576.2088,657.8229s3.1953,18.45,4.7,23.4966,2.6721,5.5326,7.9934,5.5326h12.0341l-.0242,9.8839H584.8247c-4.4136,0-8.4784.0865-10.7915-6.8872s-9.1863-29.9495-9.1863-29.9495Z" transform="translate(-277.3803 -551.3703)"/><path class="cls-5" d="M575.4514,660.6707s3.2819,17.815,4.6987,22.4017,2.5118,5.0235,7.5339,5.0235h11.3632l.77,6.8871H584.6262c-4.1527,0-7.6459.112-9.847-6.229-2.1756-6.34-8.08-27.2138-8.08-27.2138Z" transform="translate(-277.3803 -551.3703)"/><polygon class="cls-6" points="319.019 111.873 390.839 111.836 397.353 115.355 388.526 151.345 385.617 154.254 326.49 154.254 323.208 150.612 319.019 111.873"/><path class="cls-7" d="M668.2191,663.2066l6.5142,3.5187s-3.8294,15.54-3.7045,15.1416c1.2933-4.6-18.2008-5.2462-37.6693-5.2462-19.4432,0-27.5245.8822-27.5245,10.281,0,6.1666.4724,14.048,4.6989,18.7226h-6.6632l-3.2819-3.6421-4.19-38.7387Z" transform="translate(-277.3803 -551.3703)"/><path class="cls-8" d="M283.771,702.1184a1.5547,1.5547,0,0,0,1.5531,1.5544h0a1.555,1.555,0,0,0,1.5544-1.5544v-39.67a1.5574,1.5574,0,0,0-1.5544-1.5658h0a1.5571,1.5571,0,0,0-1.5531,1.5658Z" transform="translate(-277.3803 -551.3703)"/><path class="cls-9" d="M283.8207,701.6219c0,.634.3233,1.1432.7332,1.1432h0c.41,0,.7333-.5092.7333-1.1432v-39.67c0-.6352-.3234-1.1572-.7333-1.1572h0c-.41,0-.7332.522-.7332,1.1572Z" transform="translate(-277.3803 -551.3703)"/><path class="cls-10" d="M298.5154,705.1393c0-24.3545,19.3438-44.0841,43.2006-44.0841s43.2019,19.73,43.2019,44.0841c0,.8835-.0382,1.7657-.0993,2.6365H298.6019C298.565,706.905,298.5154,706.0228,298.5154,705.1393Z" transform="translate(-277.3803 -551.3703)"/><path d="M304.1346,705.4881c0-21.1974,16.8207-38.3656,37.5814-38.3656,20.7493,0,37.5827,17.1682,37.5827,38.3656,0,.7575-.0254,1.529-.0751,2.2877H304.2084C304.1587,707.0171,304.1346,706.2456,304.1346,705.4881Z" transform="translate(-277.3803 -551.3703)"/><path class="cls-11" d="M309.3438,705.3137a32.6771,32.6771,0,1,0,32.6714-32.684A32.6776,32.6776,0,0,0,309.3438,705.3137Z" transform="translate(-277.3803 -551.3703)"/><g class="cls-12"><path class="cls-13" d="M341.8038,676.3724A31.6657,31.6657,0,0,0,310.3509,704.32a31.6788,31.6788,0,0,1,63.3528.5461,36.49,36.49,0,0,1-.2241,3.73v-.5474A31.6708,31.6708,0,0,0,341.8038,676.3724Z" transform="translate(-277.3803 -551.3703)"/></g><path class="cls-14" d="M342.0152,680.7109a24.6588,24.6588,0,1,1-24.6538,24.6525A24.6557,24.6557,0,0,1,342.0152,680.7109Z" transform="translate(-277.3803 -551.3703)"/><path class="cls-15" d="M321.4148,705.2513A20.8855,20.8855,0,1,0,342.3,684.3531,20.8909,20.8909,0,0,0,321.4148,705.2513Z" transform="translate(-277.3803 -551.3703)"/><path class="cls-16" d="M324.0627,705.2513A18.2376,18.2376,0,1,0,342.3,687.001,18.2409,18.2409,0,0,0,324.0627,705.2513Z" transform="translate(-277.3803 -551.3703)"/><path class="cls-17" d="M325.4185,705.2513A16.8825,16.8825,0,1,0,342.3,688.3683,16.8792,16.8792,0,0,0,325.4185,705.2513Z" transform="translate(-277.3803 -551.3703)"/><g class="cls-18"><path class="cls-19" d="M359.1579,704.6046a5.3789,5.3789,0,0,1,.0255.6467,16.8825,16.8825,0,0,1-33.7649,0c0-.224.0115-.4468.0242-.6708A54.3608,54.3608,0,0,0,359.1579,704.6046Z" transform="translate(-277.3803 -551.3703)"/></g><path class="cls-20" d="M335.5125,705.1648a6.5021,6.5021,0,1,0,6.49-6.5027A6.4966,6.4966,0,0,0,335.5125,705.1648Z" transform="translate(-277.3803 -551.3703)"/><circle class="cls-21" cx="64.6221" cy="153.7945" r="5.744"/><circle class="cls-22" cx="64.6221" cy="153.7945" r="3.2323"/><circle class="cls-23" cx="64.6221" cy="153.7945" r="2.8592"/><path class="cls-24" d="M325.9647,705.1648a2.0515,2.0515,0,1,0,2.0636-2.0509A2.0556,2.0556,0,0,0,325.9647,705.1648Z" transform="translate(-277.3803 -551.3703)"/><path class="cls-25" d="M326.2142,705.1648a1.8147,1.8147,0,1,0,1.8141-1.8154A1.8086,1.8086,0,0,0,326.2142,705.1648Z" transform="translate(-277.3803 -551.3703)"/><path class="cls-26" d="M353.9372,705.1648a2.0573,2.0573,0,1,0,2.0636-2.0509A2.0556,2.0556,0,0,0,353.9372,705.1648Z" transform="translate(-277.3803 -551.3703)"/><circle class="cls-27" cx="78.6204" cy="153.7945" r="1.8154"/><path class="cls-28" d="M342.0152,721.2013a2.0509,2.0509,0,1,0-2.0522-2.0509A2.0529,2.0529,0,0,0,342.0152,721.2013Z" transform="translate(-277.3803 -551.3703)"/><path class="cls-29" d="M342.0024,720.9658A1.8154,1.8154,0,1,0,340.2,719.15,1.8018,1.8018,0,0,0,342.0024,720.9658Z" transform="translate(-277.3803 -551.3703)"/><path class="cls-30" d="M342.0152,693.23a2.0515,2.0515,0,1,0-2.0522-2.0508A2.0537,2.0537,0,0,0,342.0152,693.23Z" transform="translate(-277.3803 -551.3703)"/><path class="cls-31" d="M342.0024,692.9818a1.809,1.809,0,1,0-1.8026-1.8026A1.7991,1.7991,0,0,0,342.0024,692.9818Z" transform="translate(-277.3803 -551.3703)"/><path class="cls-32" d="M353.3529,716.5025a2.0484,2.0484,0,1,0-2.8975,0A2.0327,2.0327,0,0,0,353.3529,716.5025Z" transform="translate(-277.3803 -551.3703)"/><path class="cls-33" d="M353.1912,716.3408a1.82,1.82,0,0,0-2.5741-2.5728,1.82,1.82,0,1,0,2.5741,2.5728Z" transform="translate(-277.3803 -551.3703)"/><path class="cls-34" d="M333.5736,696.7232a2.0524,2.0524,0,1,0-2.9089,0A2.0552,2.0552,0,0,0,333.5736,696.7232Z" transform="translate(-277.3803 -551.3703)"/><path class="cls-35" d="M333.3992,696.5616a1.8152,1.8152,0,1,0-2.5613,0A1.8217,1.8217,0,0,0,333.3992,696.5616Z" transform="translate(-277.3803 -551.3703)"/><path class="cls-36" d="M353.3529,693.8271a2.034,2.034,0,0,0-2.8975,0,2.0126,2.0126,0,0,0,0,2.8961,2.0483,2.0483,0,0,0,2.8975-2.8961Z" transform="translate(-277.3803 -551.3703)"/><path class="cls-37" d="M353.1912,693.9888a1.82,1.82,0,1,0,0,2.5728A1.8455,1.8455,0,0,0,353.1912,693.9888Z" transform="translate(-277.3803 -551.3703)"/><circle class="cls-38" cx="54.7388" cy="163.6841" r="2.0506"/><path class="cls-39" d="M333.3992,713.768a1.8152,1.8152,0,1,0,0,2.5728A1.8194,1.8194,0,0,0,333.3992,713.768Z" transform="translate(-277.3803 -551.3703)"/><rect class="cls-40" x="3.4308" y="100.6972" width="390.4658" height="14.4465"/><rect class="cls-41" x="2.014" y="101.9155" width="392.9775" height="0.1362"/><path class="cls-42" d="M279.7176,653.3227H672.0484v.0624H279.7176v-.0624m-.6467-.0623v.1871H672.6938V653.26Z" transform="translate(-277.3803 -551.3703)"/><rect class="cls-41" x="2.014" y="102.836" width="392.9775" height="0.1362"/><path class="cls-42" d="M279.7176,654.2432H672.0484v.0623H279.7176v-.0623m-.6467-.0624v.1858H672.6938v-.1858Z" transform="translate(-277.3803 -551.3703)"/><rect class="cls-41" x="2.014" y="103.7551" width="392.9775" height="0.1375"/><path class="cls-42" d="M279.7176,655.1623H672.0484v.0624H279.7176v-.0624m-.6467-.0611V655.3H672.6938v-.1986Z" transform="translate(-277.3803 -551.3703)"/><rect class="cls-41" x="2.014" y="104.6755" width="392.9775" height="0.1362"/><path class="cls-42" d="M279.7176,656.0827H672.0484v.0624H279.7176v-.0624m-.6467-.0624v.2H672.6938v-.2Z" transform="translate(-277.3803 -551.3703)"/><rect class="cls-41" x="2.014" y="105.6074" width="392.9775" height="0.1248"/><path class="cls-42" d="M279.7176,657.0031H672.0484v.0624H279.7176v-.0624m-.6467-.0624v.1986H672.6938v-.1986Z" transform="translate(-277.3803 -551.3703)"/><rect class="cls-41" x="2.014" y="106.5278" width="392.9775" height="0.1248"/><path class="cls-42" d="M279.7176,657.9222H672.0484v.0624H279.7176v-.0624m-.6467-.0611v.1986H672.6938v-.1986Z" transform="translate(-277.3803 -551.3703)"/><rect class="cls-41" x="2.014" y="107.4355" width="392.9775" height="0.1362"/><path class="cls-42" d="M279.7176,658.8426H672.0484v.0624H279.7176v-.0624m-.6467-.0623v.2H672.6938v-.2Z" transform="translate(-277.3803 -551.3703)"/><rect class="cls-41" x="2.014" y="108.3673" width="392.9775" height="0.1248"/><path class="cls-42" d="M279.7176,659.7631H672.0484v.0623H279.7176v-.0623m-.6467-.0624v.1986H672.6938v-.1986Z" transform="translate(-277.3803 -551.3703)"/><rect class="cls-41" x="2.014" y="109.2877" width="392.9775" height="0.1248"/><path class="cls-42" d="M279.7176,660.6822H672.0484v.0624H279.7176v-.0624m-.6467-.0611v.1986H672.6938v-.1986Z" transform="translate(-277.3803 -551.3703)"/><rect class="cls-41" x="2.014" y="110.1954" width="392.9775" height="0.1362"/><path class="cls-42" d="M279.7176,661.6026H672.0484v.0751H279.7176v-.0751m-.6467-.0624v.2H672.6938v-.2Z" transform="translate(-277.3803 -551.3703)"/><rect class="cls-41" x="2.014" y="111.1273" width="392.9775" height="0.1248"/><path class="cls-42" d="M279.7176,662.523H672.0484v.0738H279.7176v-.0738m-.6467-.0624v.1986H672.6938v-.1986Z" transform="translate(-277.3803 -551.3703)"/><rect class="cls-41" x="2.014" y="112.0477" width="392.9775" height="0.1248"/><path class="cls-42" d="M279.7176,663.4421H672.0484v.0752H279.7176v-.0752m-.6467-.0611v.1986H672.6938v-.1986Z" transform="translate(-277.3803 -551.3703)"/><rect class="cls-41" x="2.014" y="112.9681" width="392.9775" height="0.1235"/><path class="cls-42" d="M279.7176,664.3626H672.0484v.0751H279.7176v-.0751m-.6467-.0624v.1986H672.6938V664.3Z" transform="translate(-277.3803 -551.3703)"/><rect class="cls-41" x="2.014" y="113.8872" width="392.9775" height="0.1248"/><path class="cls-42" d="M279.7176,665.283H672.0484v.0623H279.7176v-.0623m-.6467-.0624v.1986H672.6938v-.1986Z" transform="translate(-277.3803 -551.3703)"/><path class="cls-43" d="M278.5121,651.8435v14.5954H673.49v-.149h.1006V651.9428H673.49v-.0993Zm388.2647.6709v4.9114c-2.4621,1.4665-2.81,7.4345-118.6513,7.2346-115.494-.1986-262.7887-7.3721-262.7887-7.3721v-4.7739Z" transform="translate(-277.3803 -551.3703)"/><path class="cls-43" d="M672.6938,659.8993s3.506,5.6688-125.34,5.6688-266.5429-5.8547-266.5429-5.8547v6.5014h391.46Z" transform="translate(-277.3803 -551.3703)"/><rect class="cls-44" y="100.4732" width="6.8872" height="14.6323"/><rect class="cls-45" x="390.5651" y="100.4732" width="6.8872" height="14.6323"/><rect class="cls-46" y="100.3739" width="397.353" height="0.6836"/><rect class="cls-47" y="114.6587" width="397.353" height="0.6836"/><path class="cls-48" d="M415.8732,664.55a1.0878,1.0878,0,1,0,0-2.1756,1.0878,1.0878,0,0,0,0,2.1756Z" transform="translate(-277.3803 -551.3703)"/><path class="cls-49" d="M415.8235,664.4491a.9879.9879,0,1,0,0-1.9757.9879.9879,0,0,0,0,1.9757Z" transform="translate(-277.3803 -551.3703)"/><path class="cls-50" d="M415.8732,663.7782a.3288.3288,0,0,0,.3233-.3233.3292.3292,0,1,0-.3233.3233Z" transform="translate(-277.3803 -551.3703)"/><path class="cls-51" d="M415.7866,663.791a.3144.3144,0,0,0,.3233-.3234.3212.3212,0,0,0-.3233-.3233.3316.3316,0,0,0-.3361.3233A.3244.3244,0,0,0,415.7866,663.791Z" transform="translate(-277.3803 -551.3703)"/><path class="cls-48" d="M439.5441,664.55a1.0878,1.0878,0,1,0-1.0936-1.0948A1.0953,1.0953,0,0,0,439.5441,664.55Z" transform="translate(-277.3803 -551.3703)"/><path class="cls-52" d="M439.4944,664.4491a.9879.9879,0,1,0-.9942-.9942A.9964.9964,0,0,0,439.4944,664.4491Z" transform="translate(-277.3803 -551.3703)"/><path class="cls-53" d="M439.5313,663.7782a.3205.3205,0,0,0,.3234-.3233.3244.3244,0,0,0-.3234-.3361.3347.3347,0,0,0-.3348.3361A.3313.3313,0,0,0,439.5313,663.7782Z" transform="translate(-277.3803 -551.3703)"/><path class="cls-54" d="M439.4448,663.791a.3146.3146,0,0,0,.3234-.3234.3214.3214,0,0,0-.3234-.3233.3289.3289,0,0,0-.3234.3233A.3214.3214,0,0,0,439.4448,663.791Z" transform="translate(-277.3803 -551.3703)"/><path class="cls-48" d="M463.215,664.55a1.0878,1.0878,0,1,0-1.0948-1.0948A1.0883,1.0883,0,0,0,463.215,664.55Z" transform="translate(-277.3803 -551.3703)"/><path class="cls-55" d="M463.1526,664.4491a.9879.9879,0,1,0-.9828-.9942A.9857.9857,0,0,0,463.1526,664.4491Z" transform="translate(-277.3803 -551.3703)"/><path class="cls-56" d="M463.19,663.7782a.3289.3289,0,0,0,.3234-.3233.3236.3236,0,1,0-.6467,0A.3288.3288,0,0,0,463.19,663.7782Z" transform="translate(-277.3803 -551.3703)"/><path class="cls-57" d="M463.1157,663.791a.3211.3211,0,0,0,.3221-.3234.3286.3286,0,0,0-.3221-.3233.3206.3206,0,0,0-.3234.3233A.3138.3138,0,0,0,463.1157,663.791Z" transform="translate(-277.3803 -551.3703)"/><path class="cls-48" d="M486.86,664.55a1.0878,1.0878,0,1,0,0-2.1756,1.088,1.088,0,0,0,0,2.1756Z" transform="translate(-277.3803 -551.3703)"/><path class="cls-58" d="M486.8108,664.4491a.9879.9879,0,1,0-.9828-.9942A.9964.9964,0,0,0,486.8108,664.4491Z" transform="translate(-277.3803 -551.3703)"/><path class="cls-59" d="M486.86,663.7782a.3288.3288,0,0,0,.3234-.3233.3236.3236,0,1,0-.6467,0A.3288.3288,0,0,0,486.86,663.7782Z" transform="translate(-277.3803 -551.3703)"/><path class="cls-60" d="M486.7853,663.791a.3214.3214,0,0,0,.3234-.3234.3288.3288,0,0,0-.3234-.3233.3232.3232,0,0,0-.3347.3233A.3166.3166,0,0,0,486.7853,663.791Z" transform="translate(-277.3803 -551.3703)"/><path class="cls-48" d="M510.5314,664.55a1.0878,1.0878,0,1,0-1.0948-1.0948A1.096,1.096,0,0,0,510.5314,664.55Z" transform="translate(-277.3803 -551.3703)"/><path class="cls-61" d="M510.4817,664.4491a.9879.9879,0,1,0-.9955-.9942A.9972.9972,0,0,0,510.4817,664.4491Z" transform="translate(-277.3803 -551.3703)"/><path class="cls-62" d="M510.5186,663.7782a.33.33,0,1,0-.3233-.3233A.3288.3288,0,0,0,510.5186,663.7782Z" transform="translate(-277.3803 -551.3703)"/><path class="cls-63" d="M510.4321,663.791a.3167.3167,0,0,0,.3348-.3234.3233.3233,0,0,0-.3348-.3233.3289.3289,0,0,0-.3234.3233A.3214.3214,0,0,0,510.4321,663.791Z" transform="translate(-277.3803 -551.3703)"/><path class="cls-48" d="M534.201,664.55a1.0878,1.0878,0,1,0-1.0935-1.0948A1.0856,1.0856,0,0,0,534.201,664.55Z" transform="translate(-277.3803 -551.3703)"/><path class="cls-64" d="M534.1514,664.4491a.988.988,0,0,0,0-1.9757.9879.9879,0,1,0,0,1.9757Z" transform="translate(-277.3803 -551.3703)"/><path class="cls-65" d="M534.1769,663.7782a.3213.3213,0,0,0,.3233-.3233.3251.3251,0,0,0-.3233-.3361.3324.3324,0,0,0-.3234.3361A.3288.3288,0,0,0,534.1769,663.7782Z" transform="translate(-277.3803 -551.3703)"/><circle class="cls-66" cx="256.7214" cy="112.0973" r="0.3234"/><path class="cls-48" d="M299.8329,664.3129a1.0878,1.0878,0,1,0-1.0948-1.0935A1.095,1.095,0,0,0,299.8329,664.3129Z" transform="translate(-277.3803 -551.3703)"/><path class="cls-67" d="M299.7833,664.2136a.9885.9885,0,1,0-.9942-.9942A.9981.9981,0,0,0,299.7833,664.2136Z" transform="translate(-277.3803 -551.3703)"/><path class="cls-68" d="M299.82,663.5427a.3324.3324,0,0,0,.3361-.3233.3236.3236,0,0,0-.3361-.3234.3137.3137,0,0,0-.3233.3234A.3221.3221,0,0,0,299.82,663.5427Z" transform="translate(-277.3803 -551.3703)"/><path class="cls-69" d="M299.7337,663.5669a.33.33,0,1,0,0-.6594.33.33,0,0,0,0,.6594Z" transform="translate(-277.3803 -551.3703)"/><path class="cls-48" d="M322.931,664.3129a1.0878,1.0878,0,1,0-1.0935-1.0935A1.0853,1.0853,0,0,0,322.931,664.3129Z" transform="translate(-277.3803 -551.3703)"/><path class="cls-70" d="M322.8814,664.2136a.9885.9885,0,1,0-.9943-.9942A.9981.9981,0,0,0,322.8814,664.2136Z" transform="translate(-277.3803 -551.3703)"/><path class="cls-71" d="M322.92,663.5427a.3221.3221,0,0,0,.3234-.3233.3138.3138,0,0,0-.3234-.3234.3236.3236,0,0,0-.336.3234A.3324.3324,0,0,0,322.92,663.5427Z" transform="translate(-277.3803 -551.3703)"/><path class="cls-72" d="M322.8317,663.5669a.33.33,0,1,0-.3233-.3361A.3317.3317,0,0,0,322.8317,663.5669Z" transform="translate(-277.3803 -551.3703)"/><path class="cls-48" d="M346.03,664.3129a1.0878,1.0878,0,1,0-1.0935-1.0935A1.0853,1.0853,0,0,0,346.03,664.3129Z" transform="translate(-277.3803 -551.3703)"/><path class="cls-73" d="M345.9807,664.2136a.9885.9885,0,1,0-.9943-.9942A.9946.9946,0,0,0,345.9807,664.2136Z" transform="translate(-277.3803 -551.3703)"/><path class="cls-74" d="M346.0049,663.5427a.3324.3324,0,0,0,.336-.3233.33.33,0,0,0-.6594,0A.3306.3306,0,0,0,346.0049,663.5427Z" transform="translate(-277.3803 -551.3703)"/><path class="cls-75" d="M345.931,663.5669a.33.33,0,1,0-.3233-.3361A.3317.3317,0,0,0,345.931,663.5669Z" transform="translate(-277.3803 -551.3703)"/><path class="cls-48" d="M369.1169,664.3129a1.0878,1.0878,0,1,0,0-2.1756,1.0878,1.0878,0,0,0,0,2.1756Z" transform="translate(-277.3803 -551.3703)"/><path class="cls-76" d="M369.0673,664.2136a.9885.9885,0,1,0-.9828-.9942A.9872.9872,0,0,0,369.0673,664.2136Z" transform="translate(-277.3803 -551.3703)"/><circle class="cls-77" cx="91.7239" cy="111.8491" r="0.3234"/><path class="cls-78" d="M369.0291,663.5669a.33.33,0,0,0,0-.6594.33.33,0,0,0,0,.6594Z" transform="translate(-277.3803 -551.3703)"/><path class="cls-48" d="M392.215,664.3129a1.0878,1.0878,0,1,0-1.0808-1.0935A1.0773,1.0773,0,0,0,392.215,664.3129Z" transform="translate(-277.3803 -551.3703)"/><path class="cls-79" d="M392.1526,664.2136a.9885.9885,0,1,0,0-1.977.9887.9887,0,0,0,0,1.977Z" transform="translate(-277.3803 -551.3703)"/><path class="cls-80" d="M392.2022,663.5427a.33.33,0,0,0,.3234-.3233.3227.3227,0,1,0-.6454,0A.33.33,0,0,0,392.2022,663.5427Z" transform="translate(-277.3803 -551.3703)"/><path class="cls-81" d="M392.1284,663.5669a.33.33,0,0,0,0-.6594.33.33,0,0,0,0,.6594Z" transform="translate(-277.3803 -551.3703)"/><path class="cls-48" d="M559.5625,664.3129a1.0878,1.0878,0,1,0-1.0935-1.0935A1.096,1.096,0,0,0,559.5625,664.3129Z" transform="translate(-277.3803 -551.3703)"/><path class="cls-82" d="M559.5129,664.2136a.9885.9885,0,1,0-.9943-.9942A.9972.9972,0,0,0,559.5129,664.2136Z" transform="translate(-277.3803 -551.3703)"/><path class="cls-83" d="M559.5511,663.5427a.3322.3322,0,0,0,.3348-.3233.3233.3233,0,0,0-.3348-.3234.313.313,0,0,0-.3234.3234A.3213.3213,0,0,0,559.5511,663.5427Z" transform="translate(-277.3803 -551.3703)"/><path class="cls-84" d="M559.476,663.5669a.33.33,0,1,0-.3361-.3361A.3316.3316,0,0,0,559.476,663.5669Z" transform="translate(-277.3803 -551.3703)"/><path class="cls-48" d="M582.6619,664.3129a1.0878,1.0878,0,1,0-1.0949-1.0935A1.095,1.095,0,0,0,582.6619,664.3129Z" transform="translate(-277.3803 -551.3703)"/><path class="cls-85" d="M582.6122,664.2136a.9885.9885,0,1,0-.9942-.9942A.998.998,0,0,0,582.6122,664.2136Z" transform="translate(-277.3803 -551.3703)"/><path class="cls-86" d="M582.6491,663.5427a.3213.3213,0,0,0,.3234-.3233.3234.3234,0,1,0-.6467,0A.3221.3221,0,0,0,582.6491,663.5427Z" transform="translate(-277.3803 -551.3703)"/><path class="cls-87" d="M582.5626,663.5669a.33.33,0,1,0,0-.6594.33.33,0,0,0,0,.6594Z" transform="translate(-277.3803 -551.3703)"/><path class="cls-48" d="M605.76,664.3129a1.0878,1.0878,0,1,0-1.0936-1.0935A1.0852,1.0852,0,0,0,605.76,664.3129Z" transform="translate(-277.3803 -551.3703)"/><path class="cls-88" d="M605.6988,664.2136a.9885.9885,0,0,0,0-1.977.9885.9885,0,0,0,0,1.977Z" transform="translate(-277.3803 -551.3703)"/><path class="cls-89" d="M605.7484,663.5427a.3294.3294,0,0,0,.3221-.3233.32.32,0,0,0-.3221-.3234.3236.3236,0,0,0-.336.3234A.3324.3324,0,0,0,605.7484,663.5427Z" transform="translate(-277.3803 -551.3703)"/><path class="cls-90" d="M605.6606,663.5669a.33.33,0,1,0-.3233-.3361A.3317.3317,0,0,0,605.6606,663.5669Z" transform="translate(-277.3803 -551.3703)"/><path class="cls-48" d="M628.8338,664.3129a1.088,1.088,0,1,0-1.0681-1.0935A1.08,1.08,0,0,0,628.8338,664.3129Z" transform="translate(-277.3803 -551.3703)"/><path class="cls-91" d="M628.81,664.2136a.9885.9885,0,1,0-.9943-.9942A.9933.9933,0,0,0,628.81,664.2136Z" transform="translate(-277.3803 -551.3703)"/><circle class="cls-92" cx="351.4534" cy="111.8491" r="0.3234"/><path class="cls-93" d="M628.76,663.5669a.33.33,0,1,0-.3233-.3361A.3324.3324,0,0,0,628.76,663.5669Z" transform="translate(-277.3803 -551.3703)"/><path class="cls-48" d="M651.9331,664.3129a1.0878,1.0878,0,1,0,0-2.1756,1.088,1.088,0,0,0,0,2.1756Z" transform="translate(-277.3803 -551.3703)"/><path class="cls-94" d="M651.8834,664.2136a.9885.9885,0,1,0-.9941-.9942A.9973.9973,0,0,0,651.8834,664.2136Z" transform="translate(-277.3803 -551.3703)"/><path class="cls-95" d="M651.9331,663.5427a.33.33,0,0,0,.3233-.3233.3234.3234,0,1,0-.6467,0A.33.33,0,0,0,651.9331,663.5427Z" transform="translate(-277.3803 -551.3703)"/><path class="cls-96" d="M651.858,663.5669a.33.33,0,1,0-.3234-.3361A.3316.3316,0,0,0,651.858,663.5669Z" transform="translate(-277.3803 -551.3703)"/><rect class="cls-43" y="114.758" width="397.353" height="0.5971"/><path class="cls-97" d="M662.8978,672.1332a5.1221,5.1221,0,1,0,5.1227-5.1227A5.1122,5.1122,0,0,0,662.8978,672.1332Z" transform="translate(-277.3803 -551.3703)"/><path class="cls-98" d="M652.3061,672.0212a5.1094,5.1094,0,1,0,5.1214-5.1228A5.1228,5.1228,0,0,0,652.3061,672.0212Z" transform="translate(-277.3803 -551.3703)"/><path class="cls-99" d="M653.1756,671.983a4.2647,4.2647,0,1,0,4.2519-4.2634A4.2579,4.2579,0,0,0,653.1756,671.983Z" transform="translate(-277.3803 -551.3703)"/><path class="cls-100" d="M663.7685,672.0708a4.2641,4.2641,0,1,0,4.252-4.2647A4.2588,4.2588,0,0,0,663.7685,672.0708Z" transform="translate(-277.3803 -551.3703)"/><path d="M714.8888,668.7507c8.2047,0,24.6651,3.1712,32.5224,17.3057-7.6332-10.1563-18.7978-16.398-37.6693-15.3286-19.4432,1.082-27.4251,20.65-27.6492,26.4436V676.8447c0-3.0833.3488-5.9922-.9191-7.6955C687.14,671.15,705.6643,668.7507,714.8888,668.7507Z" transform="translate(-277.3803 -551.3703)"/><path d="M716.53,666.3014a41.8174,41.8174,0,0,1,41.6717,38.5146H674.858A41.8174,41.8174,0,0,1,716.53,666.3014Z" transform="translate(-277.3803 -551.3703)"/><path class="cls-101" d="M681.3467,705.3137A32.6713,32.6713,0,1,0,714.018,672.63,32.67,32.67,0,0,0,681.3467,705.3137Z" transform="translate(-277.3803 -551.3703)"/><g class="cls-12"><path class="cls-102" d="M713.8194,676.3724a31.6658,31.6658,0,0,0-31.453,27.9471,31.6666,31.6666,0,0,1,63.3287.5461,30.4508,30.4508,0,0,1-.2241,3.73c0-.1744.0255-.36.0255-.5474A31.6874,31.6874,0,0,0,713.8194,676.3724Z" transform="translate(-277.3803 -551.3703)"/></g><path class="cls-103" d="M714.018,680.7109a24.6588,24.6588,0,1,1-24.64,24.6525A24.6577,24.6577,0,0,1,714.018,680.7109Z" transform="translate(-277.3803 -551.3703)"/><path class="cls-104" d="M693.4062,705.2513a20.8983,20.8983,0,1,0,20.911-20.8982A20.9118,20.9118,0,0,0,693.4062,705.2513Z" transform="translate(-277.3803 -551.3703)"/><path class="cls-105" d="M696.0669,705.2513a18.2376,18.2376,0,1,0,18.25-18.25A18.2355,18.2355,0,0,0,696.0669,705.2513Z" transform="translate(-277.3803 -551.3703)"/><path class="cls-106" d="M697.4341,705.2513a16.8831,16.8831,0,1,0,16.8831-16.883A16.88,16.88,0,0,0,697.4341,705.2513Z" transform="translate(-277.3803 -551.3703)"/><g class="cls-18"><path class="cls-107" d="M731.1748,704.6046c0,.2114.0254.4227.0254.6467a16.8831,16.8831,0,0,1-33.7661,0v-.6708A54.4348,54.4348,0,0,0,731.1748,704.6046Z" transform="translate(-277.3803 -551.3703)"/></g><path class="cls-108" d="M707.5039,705.1648a6.5021,6.5021,0,1,0,6.5141-6.5027A6.5017,6.5017,0,0,0,707.5039,705.1648Z" transform="translate(-277.3803 -551.3703)"/><path class="cls-109" d="M708.2753,705.1648a5.7434,5.7434,0,1,0,5.7427-5.744A5.7378,5.7378,0,0,0,708.2753,705.1648Z" transform="translate(-277.3803 -551.3703)"/><path class="cls-110" d="M710.7858,705.1648a3.2323,3.2323,0,1,0,3.2322-3.2323A3.2261,3.2261,0,0,0,710.7858,705.1648Z" transform="translate(-277.3803 -551.3703)"/><path class="cls-111" d="M711.1588,705.1648a2.86,2.86,0,1,0,2.8592-2.8593A2.8517,2.8517,0,0,0,711.1588,705.1648Z" transform="translate(-277.3803 -551.3703)"/><path class="cls-112" d="M697.9815,705.1648a2.0509,2.0509,0,1,0,2.0382-2.0509A2.0494,2.0494,0,0,0,697.9815,705.1648Z" transform="translate(-277.3803 -551.3703)"/><path class="cls-113" d="M698.2056,705.1648a1.8147,1.8147,0,1,0,1.8141-1.8154A1.8167,1.8167,0,0,0,698.2056,705.1648Z" transform="translate(-277.3803 -551.3703)"/><path class="cls-114" d="M725.9528,705.1648a2.0515,2.0515,0,1,0,2.0648-2.0509A2.0558,2.0558,0,0,0,725.9528,705.1648Z" transform="translate(-277.3803 -551.3703)"/><path class="cls-115" d="M726.1769,705.1648a1.8233,1.8233,0,0,0,1.8407,1.8153,1.8155,1.8155,0,0,0,0-3.6307A1.8234,1.8234,0,0,0,726.1769,705.1648Z" transform="translate(-277.3803 -551.3703)"/><path class="cls-116" d="M714.018,721.2013a2.0509,2.0509,0,1,0-2.0636-2.0509A2.0505,2.0505,0,0,0,714.018,721.2013Z" transform="translate(-277.3803 -551.3703)"/><path class="cls-117" d="M714.018,720.9658a1.8154,1.8154,0,1,0-1.8141-1.8154A1.8171,1.8171,0,0,0,714.018,720.9658Z" transform="translate(-277.3803 -551.3703)"/><path class="cls-118" d="M714.018,693.23a2.0515,2.0515,0,1,0-2.0636-2.0508A2.0513,2.0513,0,0,0,714.018,693.23Z" transform="translate(-277.3803 -551.3703)"/><path class="cls-119" d="M714.018,692.9818a1.809,1.809,0,1,0-1.8141-1.8026A1.8145,1.8145,0,0,0,714.018,692.9818Z" transform="translate(-277.3803 -551.3703)"/><circle class="cls-120" cx="446.5222" cy="163.6841" r="2.0506"/><path class="cls-121" d="M725.1826,716.3408a1.8152,1.8152,0,1,0-2.5614-2.5728,1.8455,1.8455,0,0,0,0,2.5728A1.8079,1.8079,0,0,0,725.1826,716.3408Z" transform="translate(-277.3803 -551.3703)"/><path class="cls-122" d="M705.5892,696.7232a2.0524,2.0524,0,0,0-2.9089-2.8961,2.0126,2.0126,0,0,0,0,2.8961A2.0476,2.0476,0,0,0,705.5892,696.7232Z" transform="translate(-277.3803 -551.3703)"/><path class="cls-123" d="M705.4161,696.5616a1.8242,1.8242,0,1,0-2.5868,0A1.8478,1.8478,0,0,0,705.4161,696.5616Z" transform="translate(-277.3803 -551.3703)"/><path class="cls-124" d="M725.357,693.8271a2.0524,2.0524,0,1,0,0,2.8961A2.0477,2.0477,0,0,0,725.357,693.8271Z" transform="translate(-277.3803 -551.3703)"/><path class="cls-125" d="M725.1826,693.9888a1.8079,1.8079,0,0,0-2.5614,0,1.8455,1.8455,0,0,0,0,2.5728,1.82,1.82,0,0,0,2.5614,0A1.8014,1.8014,0,0,0,725.1826,693.9888Z" transform="translate(-277.3803 -551.3703)"/><ellipse class="cls-126" cx="426.7544" cy="163.6841" rx="2.0583" ry="2.0465"/><path class="cls-127" d="M705.4161,713.768a1.8242,1.8242,0,1,0,0,2.5728A1.8505,1.8505,0,0,0,705.4161,713.768Z" transform="translate(-277.3803 -551.3703)"/><path class="cls-128" d="M678.7611,557.7823c0-3.53.97-6.4021,9.6472-6.4021,8.7025,0,37.5445-.1617,46.9688.8211,7.8814.82,19.32,1.84,30.4078,14.3714-3.6052-2.4-11.6356-3.7173-30.9056-3.7173H678.7611Z" transform="translate(-277.3803 -551.3703)"/><path class="cls-129" d="M678.7611,567.4421v-4.5867h12.06c-4.7.0369-5.4461.5461-5.4461,5.9043V669.8328a16.9766,16.9766,0,0,1-4.201-.6836,3.4707,3.4707,0,0,0-.597-.61c-1.9644-1.5289-1.8155-1.6651-1.8155-4.8236Z" transform="translate(-277.3803 -551.3703)"/><path class="cls-130" d="M693.4062,562.8554h41.4731c19.27,0,27.3,1.3176,30.9056,3.7173.373.4226.746.8567,1.0949,1.3048a62.6254,62.6254,0,0,1,5.3709,7.5466c12.9036,20.9848,32.2487,55.6332,35.7546,61.6381a38.9775,38.9775,0,0,1,4.4506,12.2085,79.2373,79.2373,0,0,1,1.2183,14.7812v50.387h-59.227s1.3176-16.7214-6.34-27.4379c-.2241-.3233-.4481-.6339-.6963-.9446-7.8573-14.1345-24.3177-17.3057-32.5224-17.3057-7.609,0-21.5081,1.6295-29.5142,1.0821V568.76C685.3746,562.532,686.37,562.8554,693.4062,562.8554Z" transform="translate(-277.3803 -551.3703)"/><path class="cls-128" d="M678.7611,557.7823c0-3.53.97-6.4021,9.6472-6.4021,8.7025,0,37.5445-.1617,46.9688.8211,7.8814.82,19.32,1.84,30.4078,14.3714-3.6052-2.4-11.6356-3.7173-30.9056-3.7173H678.7611Z" transform="translate(-277.3803 -551.3703)"/><path class="cls-129" d="M678.7611,567.4421v-4.5867h12.06c-4.7.0369-5.4461.5461-5.4461,5.9043V669.8328a16.9766,16.9766,0,0,1-4.201-.6836,3.4707,3.4707,0,0,0-.597-.61c-1.9644-1.5289-1.8155-1.6651-1.8155-4.8236Z" transform="translate(-277.3803 -551.3703)"/><path class="cls-131" d="M762.4292,575.6482s30.334,52.7853,33.9393,58.0315,4.7484,9.3365,4.7484,13.1034c0,3.78.3234,6.8885-7.06,6.8885H765.04c-3.1088,0-6.863.1616-9.1748-4.5881-2.2876-4.7484-10.6426-17.8646-12.2836-20.65-1.6409-2.7968-2.6352-4.4251-10.99-4.4251H697.359c-6.7369,0-9.5223-1.4792-9.5223-6.7254V576.1319c0-5.4079-.9943-9.8329,10.99-9.8329,11.959,0,47.2171,1.6409,51.9655,1.9643A15.0777,15.0777,0,0,1,762.4292,575.6482Z" transform="translate(-277.3803 -551.3703)"/><path class="cls-132" d="M687.8367,576.1319V617.283c0,5.2462,2.7854,6.7254,9.5223,6.7254h35.2327c8.3549,0,9.3492,1.6283,10.99,4.4251,1.641,2.7854,9.996,15.9016,12.2836,20.65,2.163,4.4506,5.5937,4.5881,8.5778,4.5881h29.6134c7.3837,0,7.06-3.1088,7.06-6.8885,0-3.7669-1.1432-7.8559-4.7484-13.1034s-33.9393-58.0315-33.9393-58.0315a15.0777,15.0777,0,0,0-11.6369-7.3849c-4.7484-.3234-40.0065-1.9643-51.9655-1.9643C686.8424,566.299,687.8367,570.724,687.8367,576.1319Zm3.357-5.6688c.6963-.7078,2.56-1.5417,7.6331-1.5417,11.6865,0,46.8441,1.6168,51.7911,1.9643a12.4354,12.4354,0,0,1,9.4982,6.005.0678.0678,0,0,1,.0255.0623c1.2424,2.1629,30.4333,52.9356,34.064,58.2073,2.9585,4.3258,4.2761,7.9068,4.2761,11.6228l.0255.4736c0,1.2921,0,2.6225-.3985,3.0209-.1986.1859-1.02.77-4.0521.77H764.4432c-2.9344,0-4.8235-.1986-6.2163-3.1075-1.74-3.6052-6.6631-11.55-9.8954-16.7965-1.1686-1.8522-2.0648-3.3188-2.4875-4.0406-2.2864-3.89-4.3512-5.7185-13.2523-5.7185H697.359c-2.9585,0-4.8732-.3106-5.8178-.9573-.3475-.2228-1.0693-.7078-1.0693-3.1444V576.1319c0-.3972,0-.7829-.0242-1.18C690.4222,572.6642,690.4477,571.2218,691.1937,570.4631Z" transform="translate(-277.3803 -551.3703)"/><path class="cls-133" d="M698.8268,566.299c11.959,0,47.2171,1.6409,51.9655,1.9643a15.0777,15.0777,0,0,1,11.6369,7.3849s12.4567,21.6684,22.3521,38.6138c-3.7784,1.8765-9.1749,3.0324-16.9315,2.4481-25.0878-1.8892-29.1908-14.0849-54.1042-17.0193-12.6808-1.5035-20.4883-.7333-25.9089,1.3673V576.1319C687.8367,570.724,686.8424,566.299,698.8268,566.299Z" transform="translate(-277.3803 -551.3703)"/><path class="cls-134" d="M765.7849,566.5968c.373.41.746.8453,1.0949,1.2807a62.6254,62.6254,0,0,1,5.3709,7.5466c4.574,7.4346,9.945,16.5712,15.1416,25.5474,9.4739,16.3726,18.35,32.2117,20.613,36.0907a37.7367,37.7367,0,0,1,4.4009,12.071c-1.0693,1.0069-2.71.9828-4.8986-3.1572-2.6352-4.9852-15.5654-27.7484-26.1075-46.21-7.1609-12.556-13.2282-23.1235-14.2225-24.7772C765.3381,571.9182,763.771,567.3683,765.7849,566.5968Z" transform="translate(-277.3803 -551.3703)"/><path class="cls-135" d="M765.7849,566.5968c.373.41.746.8453,1.0949,1.2807.2978.373.6212.7588.92,1.1432a14.5058,14.5058,0,0,0,2.1374,5.8815c.8949,1.5416,6.4645,11.3619,13.0538,23.0484,9.6725,17.1809,21.5322,38.3529,23.9446,42.9778,1.8141,3.4563,3.1826,3.8408,4.1768,3.2068a41.1793,41.1793,0,0,1,1.2934,4.998c-1.0948,1.0069-2.71.9828-4.8986-3.1572-2.6352-4.9852-15.5654-27.7484-26.1075-46.21-7.1609-12.556-13.2282-23.1235-14.2225-24.7772C765.3381,571.9182,763.771,567.3683,765.7849,566.5968Z" transform="translate(-277.3803 -551.3703)"/><path class="cls-133" d="M767.1776,574.9887c-1.8395-3.0705-3.4066-7.62-1.3927-8.3919.373.41.746.8453,1.0949,1.2807a62.6254,62.6254,0,0,1,5.3709,7.5466c4.574,7.4346,9.945,16.5712,15.1416,25.5474.97,1.6906,1.94,3.37,2.9089,5.0221a22.3493,22.3493,0,0,1-2.8835,4.3016c-2.0394-3.5556-4.0533-7.1226-6.0176-10.5293C774.2392,587.21,768.1719,576.6424,767.1776,574.9887Z" transform="translate(-277.3803 -551.3703)"/><path class="cls-136" d="M704.5453,628.0987H694.45c-1.6651,0-2.2622.3845-2.2622,1.3914s0,4.7994,7.9069,4.7243C707.9023,634.1278,708.4485,628.0987,704.5453,628.0987Z" transform="translate(-277.3803 -551.3703)"/><g class="cls-137"><path class="cls-138" d="M693.4559,632.5365A11.2619,11.2619,0,0,1,699.15,631.12c3.2322,0,4.8974,1.1687,5.693,1.9885a9.818,9.818,0,0,1-4.7484,1.1063C696.49,634.2526,694.5252,633.4811,693.4559,632.5365Z" transform="translate(-277.3803 -551.3703)"/></g><path class="cls-139" d="M705.0176,627.8123h-11.04c-1.8154,0-2.4862.4226-2.4862,1.5289,0,1.0948,0,5.2347,8.6528,5.1469C708.698,634.4143,709.27,627.8123,705.0176,627.8123Z" transform="translate(-277.3803 -551.3703)"/><path class="cls-140" d="M760.34,674.4323a76.8491,76.8491,0,0,0,52.7612-20.8613,87.2069,87.2069,0,0,1,.5729,10.4809v50.387h-59.227s1.3176-16.7214-6.34-27.4379c-.2241-.3233-.4481-.6339-.6963-.9446-7.8573-14.1345-24.3177-17.3057-32.5224-17.3057-7.609,0-21.5081,1.6295-29.5142,1.0821V615.5669A77.2055,77.2055,0,0,0,760.34,674.4323Z" transform="translate(-277.3803 -551.3703)"/><path class="cls-141" d="M678.7611,663.7158v-100.86h3.6053c-.5716.87-.6964,2.2991-.6964,4.6619,0,4.2137-.0495,8.4288-.0241,12.6311.0738,9.572-.1248,19.1452-.2241,28.7172a56.1493,56.1493,0,0,0,.3972,7.92c.1006.77.2992,3.4194,1.5671,3.2081.9943-.1744,1.4424-2.499,1.6906-3.2832a6.1454,6.1454,0,0,0,.2979-1.1432v54.2659a16.4627,16.4627,0,0,1-3.7046-.5474,4.7351,4.7351,0,0,1-.4964-.1362,3.4707,3.4707,0,0,0-.597-.61C678.6122,667.0105,678.7611,666.8743,678.7611,663.7158Z" transform="translate(-277.3803 -551.3703)"/><path class="cls-142" d="M681.9438,552.3006c.5715,4.574,4.3016,8.5281,19.99,8.4288,24.7148-.1617,54.4531.7829,62.7571,4.6619.373.3857.7218.7829,1.0935,1.1814-3.6052-2.4-11.6356-3.7173-30.9056-3.7173H678.7611v-5.0731C678.7611,555.4577,679.1838,553.42,681.9438,552.3006Z" transform="translate(-277.3803 -551.3703)"/><path class="cls-10" d="M716.53,666.3014a41.8018,41.8018,0,0,1,41.7965,41.7977,43.1969,43.1969,0,0,1-.746,7.8687h-5.7185a41.9925,41.9925,0,0,0,.4723-6.1539c0-21.3209-16.51-38.6011-36.8736-38.6011-19.12,0-34.86,15.2421-36.6993,34.7476h-3.9782A41.78,41.78,0,0,1,716.53,666.3014Z" transform="translate(-277.3803 -551.3703)"/><path class="cls-143" d="M763.0759,703.3367l-.0751.0624h21.508c9.0743,0,14.2212.0254,14.3217-7.6828.05-5.4079-.2-7.6956,3.2323-7.6956h9.3237a9.23,9.23,0,0,1,2.2877.2368v26.1814h-59.227a55.3464,55.3464,0,0,0-.3475-10.0456,3.0287,3.0287,0,0,1,1.02-.5347c-3.1826-17.1058-23.1744-32.6458-23.1744-32.6458l-.3221-2.126C755.8654,677.9383,763.0759,703.3367,763.0759,703.3367Z" transform="translate(-277.3803 -551.3703)"/><path class="cls-144" d="M816.4087,696.5119v18.25c0,3.4933.3233,7.3226-8.1806,7.3226H767.2273c-2.0636,0-4.8974.224-4.8974-3.8293V711.045c0-1.8523-.3488-4.0407,4.574-4.0407h22.179c5.3709,0,12.93-2.2749,12.93-7.6828s-.15-7.6955,2.7842-7.6955h7.31C814.7181,691.626,816.4087,692.3847,816.4087,696.5119Z" transform="translate(-277.3803 -551.3703)"/><path class="cls-145" d="M766.9039,707.0043h1.0694c-.0993,6.0291.9446,9.2869,9.1748,9.2869h39.2606c-.0993,2.9967-.895,5.7936-8.1806,5.7936H767.2273c-2.0636,0-4.8974.224-4.8974-3.8293V711.045C762.33,709.1927,761.9811,707.0043,766.9039,707.0043Z" transform="translate(-277.3803 -551.3703)"/><path class="cls-146" d="M733.7107,558.2928c-22.9249.373-37.3956.6467-42.3681-6.9126,10.99-.0127,35.5064-.0751,44.0345.8211,6.29.6582,14.8678,1.4538,23.7206,8.1424A117.267,117.267,0,0,0,733.7107,558.2928Z" transform="translate(-277.3803 -551.3703)"/><path class="cls-147" d="M808.5273,660.8821c1.2425,0,2.2622,1.5162,2.2622,3.3939,0,1.865-1.02,3.3812-2.2622,3.3812-1.268,0-2.2634-1.5162-2.2634-3.3812C806.2639,662.3983,807.2593,660.8821,808.5273,660.8821Z" transform="translate(-277.3803 -551.3703)"/><path class="cls-148" d="M824.9622,613.1048c0,2.04-.5716,24.8269-.5716,28.6065,0,4.8236-.6467,7.5339-3.5314,7.62-3.4308.1005-4.7484-.9816-4.7484-9.348V614.411c0-3.2819,1.0693-6.5524,4.1768-6.5524C823.4206,607.8586,824.9622,608.27,824.9622,613.1048Z" transform="translate(-277.3803 -551.3703)"/><path class="cls-147" d="M820.2876,607.8586c1.5417,0,2.6849.0993,3.4563.7715a9.5774,9.5774,0,0,0-2.3131-.1986c-3.1075,0-4.1768,3.2068-4.1768,6.4149v25.0127c0,8.18,1.3176,9.2371,4.75,9.1379a2.0207,2.0207,0,0,0,.2979-.0255,3.0022,3.0022,0,0,1-1.4424.36c-3.4308.1005-4.7484-.9816-4.7484-9.348V614.411C816.1108,611.1291,817.18,607.8586,820.2876,607.8586Z" transform="translate(-277.3803 -551.3703)"/><path class="cls-149" d="M818.6212,645.006c3.0337,0,5.4957-9.2614,5.4957-20.6869,0-6.6631-.8452-12.5942-2.1387-16.3854,1.99.261,2.984,1.3049,2.984,5.1711,0,2.04-.5716,24.8269-.5716,28.6065,0,4.8236-.6467,7.5339-3.5314,7.62-3.0082.0878-4.3754-.7333-4.6746-6.5269C816.9065,644.21,817.7517,645.006,818.6212,645.006Z" transform="translate(-277.3803 -551.3703)"/><path class="cls-150" d="M807.06,664.2633c0,1.5658.7957,2.8465,1.8153,2.8465.9943,0,1.79-1.2807,1.79-2.8465s-.7956-2.8351-1.79-2.8351C807.8552,661.4282,807.06,662.6961,807.06,664.2633Z" transform="translate(-277.3803 -551.3703)"/><path class="cls-151" d="M807.1842,664.2633c0,1.455.746,2.6351,1.6906,2.6351.92,0,1.6665-1.18,1.6665-2.6351s-.7461-2.6238-1.6665-2.6238C807.93,661.64,807.1842,662.8082,807.1842,664.2633Z" transform="translate(-277.3803 -551.3703)"/><g class="cls-18"><path class="cls-152" d="M810.5413,664.164v.0993c0,1.455-.7461,2.6351-1.6665,2.6351-.9446,0-1.6906-1.18-1.6906-2.6351v-.0993A3.6147,3.6147,0,0,0,810.5413,664.164Z" transform="translate(-277.3803 -551.3703)"/></g><path class="cls-147" d="M809.1231,662.3983c.6225,0,1.119.746,1.119,1.6778,0,.92-.4965,1.6792-1.119,1.6792s-1.1432-.7588-1.1432-1.6792C807.98,663.1443,808.5018,662.3983,809.1231,662.3983Z" transform="translate(-277.3803 -551.3703)"/><path class="cls-147" d="M822.2265,629.9383c.6225,0,1.119.746,1.119,1.6778,0,.92-.4965,1.6792-1.119,1.6792s-1.1178-.7588-1.1178-1.6792C821.1087,630.6843,821.6052,629.9383,822.2265,629.9383Z" transform="translate(-277.3803 -551.3703)"/><path class="cls-153" d="M809.6705,665.32h12.3574c2.4366,0,4.2023-.5589,5.3709-1.74,1.641-1.6664,1.6155-4.0279,1.5913-6.1169v-.6964c0-1.3672.0242-3.6294.0751-6.24.05-3.68.1235-8.2544.1235-12.1334,0-6.2659-4.2265-7.9692-6.4644-7.9947h0a1.3063,1.3063,0,0,0-1.3177,1.2934,1.3248,1.3248,0,0,0,1.2934,1.33c.3972.0127,3.8535.2737,3.8535,5.3709,0,3.8535-.05,8.4161-.1247,12.0965-.0242,2.6224-.05,4.8973-.05,6.2773v.7218c.0255,1.7275.0255,3.3558-.8453,4.252a4.9886,4.9886,0,0,1-3.5059.9688H809.6705a1.3056,1.3056,0,0,0,0,2.611Z" transform="translate(-277.3803 -551.3703)"/><path class="cls-149" d="M808.801,663.045a1.3335,1.3335,0,0,1,.8695-.3361h12.3574a8.6879,8.6879,0,0,0,1.9146-.1986,3.1872,3.1872,0,0,0,1.5913-.77c.8708-.8962.8708-2.5245.8453-4.252v-.7218c0-1.38.0255-3.6549.05-6.2773.0751-3.68.1247-8.243.1247-12.0965,0-5.0972-3.4563-5.3582-3.8535-5.3709a1.2981,1.2981,0,0,1-.9955-2.126h.05c2.238.0254,6.44,1.716,6.44,7.9438,0,3.8662-.0751,8.4173-.1248,12.0837-.0241,2.5982-.0738,4.8617-.0738,6.2162,0,.2241.0242.4481.0242.6836.0255,2.0764.0255,4.4391-1.6155,6.0915a4.9372,4.9372,0,0,1-1.641,1.0949,10.6245,10.6245,0,0,1-2.7357.3106H809.6705a1.2943,1.2943,0,0,1-1.2922-1.3049A1.2582,1.2582,0,0,1,808.801,663.045Z" transform="translate(-277.3803 -551.3703)"/><path class="cls-147" d="M808.801,663.045a1.3335,1.3335,0,0,1,.8695-.3361h12.3574a8.6879,8.6879,0,0,0,1.9146-.1986,3.1872,3.1872,0,0,0,1.5913-.77c.8708-.8962.8708-2.5245.8453-4.252v-.7218c0-1.38.0255-3.6549.05-6.2773.05-3.68.1247-8.243.1247-12.0965,0-3.9286-2.0394-4.9852-3.1826-5.2716.92.1247,3.6053.8822,3.6053,5.3455,0,3.8662-.0751,8.4288-.1248,12.0964-.05,2.6365-.0738,4.9114-.0738,6.2786v.7206c.0242,1.7288.05,3.37-.8452,4.2519a3.1007,3.1007,0,0,1-1.5913.7829,8.5791,8.5791,0,0,1-1.9148.1872H810.0931C809.1982,662.7585,808.5273,663.2805,808.801,663.045Z" transform="translate(-277.3803 -551.3703)"/><path class="cls-147" d="M808.801,663.045a1.3335,1.3335,0,0,1,.8695-.3361h12.3574a8.6879,8.6879,0,0,0,1.9146-.1986,6.3591,6.3591,0,0,1-2.9089.5347Z" transform="translate(-277.3803 -551.3703)"/></g></g></svg>