<svg id="_ÎÓÈ_1" data-name="—ÎÓÈ_1" xmlns="http://www.w3.org/2000/svg" xmlns:xlink="http://www.w3.org/1999/xlink" viewBox="0 0 1595.8745 834.9733"><defs><style>.cls-1{fill:url(#_ÂÁ_Ï_ÌÌ_È_ËÂÌÚ_45);}.cls-2{fill:#403b4b;}.cls-3{opacity:0.4;}.cls-4{fill:#332d3d;}.cls-5{fill:#4c4958;}.cls-6{fill:url(#_ÂÁ_Ï_ÌÌ_È_ËÂÌÚ_135);}.cls-7{fill:#8fb372;}.cls-8{fill:#782824;}.cls-9{fill:#393445;}.cls-10{fill:#5f7834;}.cls-11{fill:url(#_ÂÁ_Ï_ÌÌ_È_ËÂÌÚ_135-2);}.cls-12{fill:#4a662f;}.cls-13{fill:#999aa4;}.cls-13,.cls-16{opacity:0.5;}.cls-14{fill:#52692a;}.cls-15{fill:#2b253a;}.cls-16{fill:#c9c9d4;}.cls-17{fill:url(#_ÂÁ_Ï_ÌÌ_È_ËÂÌÚ_16);}.cls-18{fill:url(#_ÂÁ_Ï_ÌÌ_È_ËÂÌÚ_16-2);}.cls-19{fill:#3c394f;}.cls-20{fill:url(#_ÂÁ_Ï_ÌÌ_È_ËÂÌÚ_135-3);}.cls-21{fill:url(#_ÂÁ_Ï_ÌÌ_È_ËÂÌÚ_247);}.cls-22{fill:url(#_ÂÁ_Ï_ÌÌ_È_ËÂÌÚ_15);}.cls-23,.cls-24,.cls-40{fill:#010;}.cls-23{opacity:0.44;}.cls-24{opacity:0.3;}.cls-25{fill:#3b3846;opacity:0.05;}.cls-26{fill:#87ad49;}.cls-27{fill:#425523;}.cls-28{fill:url(#_ÂÁ_Ï_ÌÌ_È_ËÂÌÚ_34);}.cls-29{fill:#373141;opacity:0.85;}.cls-30{fill:#565361;}.cls-31{fill:#f5c152;}.cls-32{fill:#adabb6;}.cls-33{fill:#eab94f;}.cls-34{fill:#1a0000;opacity:0.18;}.cls-35{fill:url(#_ÂÁ_Ï_ÌÌ_È_ËÂÌÚ_8);}.cls-36{fill:#b18339;opacity:0.55;}.cls-37{fill:url(#_ÂÁ_Ï_ÌÌ_È_ËÂÌÚ_34-2);}.cls-38{fill:url(#_ÂÁ_Ï_ÌÌ_È_ËÂÌÚ_135-4);}.cls-39{fill:#a2ce62;}.cls-40{opacity:0.2;}.cls-41{fill:url(#_ÂÁ_Ï_ÌÌ_È_ËÂÌÚ_34-3);}.cls-42{fill:url(#_ÂÁ_Ï_ÌÌ_È_ËÂÌÚ_8-2);}.cls-43{fill:url(#_ÂÁ_Ï_ÌÌ_È_ËÂÌÚ_8-3);}.cls-44{fill:url(#_ÂÁ_Ï_ÌÌ_È_ËÂÌÚ_43);}.cls-45{fill:#848399;}.cls-46{fill:url(#_ÂÁ_Ï_ÌÌ_È_ËÂÌÚ_14);}.cls-47{fill:url(#_ÂÁ_Ï_ÌÌ_È_ËÂÌÚ_135-5);}.cls-48{fill:#7a788a;}.cls-49{fill:#676476;}.cls-50{fill:#4f4b5d;}</style><linearGradient id="_ÂÁ_Ï_ÌÌ_È_ËÂÌÚ_45" x1="1778.9896" y1="221.4962" x2="1778.9896" y2="374.1579" gradientUnits="userSpaceOnUse"><stop offset="0" stop-color="#54515c"/><stop offset="0.8316" stop-color="#57545e"/><stop offset="0.9689" stop-color="#3d3846"/></linearGradient><linearGradient id="_ÂÁ_Ï_ÌÌ_È_ËÂÌÚ_135" x1="1694.582" y1="430.1559" x2="1694.582" y2="639.6482" gradientUnits="userSpaceOnUse"><stop offset="0" stop-color="#a2ce62"/><stop offset="0.5311" stop-color="#7b9c43"/><stop offset="1" stop-color="#567430"/></linearGradient><linearGradient id="_ÂÁ_Ï_ÌÌ_È_ËÂÌÚ_135-2" x1="2070.9253" y1="551.7375" x2="2070.9253" y2="683.8652" xlink:href="#_ÂÁ_Ï_ÌÌ_È_ËÂÌÚ_135"/><linearGradient id="_ÂÁ_Ï_ÌÌ_È_ËÂÌÚ_16" x1="1021.5816" y1="99.1283" x2="1045.019" y2="99.1283" gradientUnits="userSpaceOnUse"><stop offset="0.25" stop-color="#72717f"/><stop offset="0.75" stop-color="#3c394f"/></linearGradient><linearGradient id="_ÂÁ_Ï_ÌÌ_È_ËÂÌÚ_16-2" x1="1008.8863" y1="232.429" x2="1057.7147" y2="232.429" xlink:href="#_ÂÁ_Ï_ÌÌ_È_ËÂÌÚ_16"/><linearGradient id="_ÂÁ_Ï_ÌÌ_È_ËÂÌÚ_135-3" x1="1805.6101" y1="433.5094" x2="1805.6101" y2="580.2336" xlink:href="#_ÂÁ_Ï_ÌÌ_È_ËÂÌÚ_135"/><linearGradient id="_ÂÁ_Ï_ÌÌ_È_ËÂÌÚ_247" x1="1802.4308" y1="596.6514" x2="1863.2105" y2="596.6514" gradientUnits="userSpaceOnUse"><stop offset="0" stop-color="#80a448"/><stop offset="1" stop-color="#567538"/></linearGradient><linearGradient id="_ÂÁ_Ï_ÌÌ_È_ËÂÌÚ_15" x1="1801.9024" y1="634.5892" x2="1862.301" y2="634.5892" gradientUnits="userSpaceOnUse"><stop offset="0" stop-color="#565361"/><stop offset="1" stop-color="#393445"/></linearGradient><linearGradient id="_ÂÁ_Ï_ÌÌ_È_ËÂÌÚ_34" x1="1170.9929" y1="478.4955" x2="1170.9929" y2="620.7735" gradientUnits="userSpaceOnUse"><stop offset="0" stop-color="#6e6c78"/><stop offset="1" stop-color="#373141"/></linearGradient><linearGradient id="_ÂÁ_Ï_ÌÌ_È_ËÂÌÚ_8" x1="1071.9415" y1="804.686" x2="1071.9415" y2="679.6274" gradientUnits="userSpaceOnUse"><stop offset="0" stop-color="#ffcc5a"/><stop offset="1" stop-color="#b18339"/></linearGradient><linearGradient id="_ÂÁ_Ï_ÌÌ_È_ËÂÌÚ_34-2" x1="1129.9923" y1="656.9269" x2="1129.9923" y2="713.601" xlink:href="#_ÂÁ_Ï_ÌÌ_È_ËÂÌÚ_34"/><linearGradient id="_ÂÁ_Ï_ÌÌ_È_ËÂÌÚ_135-4" x1="1290.2926" y1="430.1559" x2="1290.2926" y2="639.6482" xlink:href="#_ÂÁ_Ï_ÌÌ_È_ËÂÌÚ_135"/><linearGradient id="_ÂÁ_Ï_ÌÌ_È_ËÂÌÚ_34-3" x1="1611.8955" y1="613.2608" x2="1611.8955" y2="723.1627" xlink:href="#_ÂÁ_Ï_ÌÌ_È_ËÂÌÚ_34"/><linearGradient id="_ÂÁ_Ï_ÌÌ_È_ËÂÌÚ_8-2" x1="1534.7264" y1="840.0875" x2="1534.7264" y2="761.4405" xlink:href="#_ÂÁ_Ï_ÌÌ_È_ËÂÌÚ_8"/><linearGradient id="_ÂÁ_Ï_ÌÌ_È_ËÂÌÚ_8-3" x1="1570.1184" y1="742.376" x2="1570.1184" y2="779.1795" xlink:href="#_ÂÁ_Ï_ÌÌ_È_ËÂÌÚ_8"/><linearGradient id="_ÂÁ_Ï_ÌÌ_È_ËÂÌÚ_43" x1="1438.9424" y1="221.4962" x2="1438.9424" y2="374.1579" gradientUnits="userSpaceOnUse"><stop offset="0.0363" stop-color="#898892"/><stop offset="0.1788" stop-color="#54515c"/><stop offset="0.8316" stop-color="#57545e"/><stop offset="0.9689" stop-color="#3d3846"/></linearGradient><linearGradient id="_ÂÁ_Ï_ÌÌ_È_ËÂÌÚ_14" x1="1841.4208" y1="623.7405" x2="1865.4148" y2="623.7405" gradientUnits="userSpaceOnUse"><stop offset="0" stop-color="#c4c4cd"/><stop offset="1" stop-color="#848399"/></linearGradient><linearGradient id="_ÂÁ_Ï_ÌÌ_È_ËÂÌÚ_135-5" x1="1670.7708" y1="551.7375" x2="1670.7708" y2="683.8652" xlink:href="#_ÂÁ_Ï_ÌÌ_È_ËÂÌÚ_135"/></defs><path class="cls-1" d="M1796.9488,221.7625H1761.03c-8.9464,0-16.199,8.1524-16.199,18.209V355.8968c0,10.0567,7.2526,18.209,16.199,18.209h35.9188c8.9468,0,16.1993-8.1523,16.1993-18.209V239.9715C1813.1481,229.9149,1805.8956,221.7625,1796.9488,221.7625Z" transform="translate(-780.1574 -125.2059)"/><path class="cls-2" d="M1817.7213,221.7625h-35.9192c-8.9465,0-16.1992,8.1524-16.1992,18.209V355.8968c0,10.0567,7.2527,18.209,16.1992,18.209h35.9192c8.946,0,16.1989-8.1523,16.1989-18.209V239.9715C1833.92,229.9149,1826.6673,221.7625,1817.7213,221.7625Z" transform="translate(-780.1574 -125.2059)"/><polygon class="cls-3" points="808.605 826.668 327.648 834.973 776.496 834.973 1595.874 834.973 808.605 826.668"/><path class="cls-4" d="M1650.209,447.4858H1523.8446c-100.1093,0-181.2646,114.77-181.2646,256.3466s81.1553,256.3465,181.2646,256.3465H1650.209c100.11,0,181.2645-114.77,181.2645-256.3465S1750.3188,447.4858,1650.209,447.4858Z" transform="translate(-780.1574 -125.2059)"/><ellipse class="cls-5" cx="743.6872" cy="578.6265" rx="181.2645" ry="256.3468"/><path class="cls-6" d="M1650.2111,383.0175H1512.1022c125.2865,0,226.8506,143.6333,226.8506,320.8149a453.0073,453.0073,0,0,1-3.41,55.1677h138.1091a453.0276,453.0276,0,0,0,3.41-55.1677C1877.0618,526.6508,1775.4977,383.0175,1650.2111,383.0175Z" transform="translate(-780.1574 -125.2059)"/><path class="cls-7" d="M1711.6853,759,1366.9542,502.4727l-16.7649-23.2575c41.1676-59.3428,98.4856-96.1977,161.9133-96.1977,125.2861,0,226.85,143.6336,226.85,320.8149a453.0282,453.0282,0,0,1-3.41,55.168Z" transform="translate(-780.1574 -125.2059)"/><path class="cls-8" d="M1956.8059,558.8134c-80.9248,0-147.2231,88.1157-153.73,200.1867H1913.561c4.9418-85.11,44.3825-156.359,98.5092-185.7359A114.9638,114.9638,0,0,0,1956.8059,558.8134Z" transform="translate(-780.1574 -125.2059)"/><path class="cls-9" d="M2067.2923,593.97H1956.8071c-71.5061,0-129.4741,81.9785-129.4741,183.1046s57.968,183.1047,129.4741,183.1047h110.4852c71.5071,0,129.4746-81.9785,129.4746-183.1047S2138.7994,593.97,2067.2923,593.97Z" transform="translate(-780.1574 -125.2059)"/><ellipse class="cls-4" cx="1176.65" cy="651.8686" rx="129.4749" ry="183.1048"/><path class="cls-10" d="M1803.0759,759h-25.2833c6.5627-131.772,84.1666-235.8158,179.0134-235.8158,45.07,0,86.2279,23.5412,117.7537,62.3335L2058.035,612.4c-27.1016-33.3483-62.4834-53.5862-101.229-53.5862C1875.8811,558.8137,1809.5833,646.9291,1803.0759,759Z" transform="translate(-780.1574 -125.2059)"/><path class="cls-11" d="M2067.291,523.1846H1956.8059c45.07,0,86.228,23.5412,117.7538,62.3335h110.4851C2153.519,546.7258,2112.3614,523.1846,2067.291,523.1846Z" transform="translate(-780.1574 -125.2059)"/><polygon class="cls-12" points="1277.878 487.194 1294.402 460.312 1404.887 460.312 1388.363 487.194 1277.878 487.194"/><path class="cls-9" d="M1956.555,731.6644H1667.39c-17.7339,0-32.11,20.3306-32.11,45.41s14.3761,45.41,32.11,45.41h289.165c17.7339,0,32.11-20.3308,32.11-45.41S1974.2889,731.6644,1956.555,731.6644Z" transform="translate(-780.1574 -125.2059)"/><polygon class="cls-13" points="713.613 50.789 950.897 50.789 985.729 309.096 985.729 468.764 945.809 468.764 695.196 359.876 695.196 309.096 713.613 50.789"/><polygon class="cls-14" points="974.386 50.789 950.897 50.789 985.729 309.096 985.729 468.764 945.809 468.764 843.035 359.876 843.035 50.789 819.547 50.789 819.547 359.876 695.196 359.876 695.196 309.096 713.613 50.789 690.124 50.789 671.707 309.096 671.707 633.794 1009.218 633.794 1009.218 309.096 974.386 50.789"/><path class="cls-15" d="M1573.1536,388.0192c-36.3482,36.3483-43.814,87.8147-16.6756,114.9531s78.6049,19.6727,114.9534-16.6756,43.8145-87.8147,16.6756-114.9534S1609.5023,351.6705,1573.1536,388.0192Zm80.4488,80.4485c-26.5018,26.5016-62.0033,33.9677-79.2954,16.6756s-9.826-52.7939,16.6756-79.2955,62.0035-33.9674,79.2954-16.6756S1680.1037,441.9659,1653.6024,468.4677Z" transform="translate(-780.1574 -125.2059)"/><rect class="cls-14" x="743.0376" y="309.0964" width="266.1806" height="324.698"/><polygon class="cls-13" points="950.898 50.789 731.695 50.789 766.526 309.096 985.729 309.096 950.898 50.789"/><polygon class="cls-10" points="708.206 50.789 743.038 309.096 766.526 309.096 731.695 50.789 708.206 50.789"/><polygon class="cls-10" points="974.386 50.789 950.898 50.789 985.729 309.096 1009.218 309.096 974.386 50.789"/><polygon class="cls-16" points="447.432 50.789 429.015 309.096 648.218 309.096 666.635 50.789 447.432 50.789"/><polygon class="cls-10" points="405.527 309.096 423.944 50.789 447.432 50.789 429.015 309.096 405.527 309.096"/><polygon class="cls-14" points="671.707 309.096 648.218 309.096 666.635 50.789 690.124 50.789 671.707 309.096"/><rect class="cls-17" x="1021.5816" width="23.4374" height="198.2566"/><rect class="cls-18" x="1008.8863" y="119.1407" width="48.8284" height="226.5766"/><path class="cls-19" d="M1789.0436,361.2514V470.9232h48.8284v-36.43S1797.162,417.75,1789.0436,361.2514Z" transform="translate(-780.1574 -125.2059)"/><path class="cls-20" d="M1784.6942,434.3021H1590.5793c99.4321,0,168.6746,21.6,205.6435,37.1516a200.8206,200.8206,0,0,0,77.895,15.5828H2000.13c26.87,0,28.1494-5.1167-.9721-16.1085C1957.6774,455.2709,1883.0108,434.3021,1784.6942,434.3021Z" transform="translate(-780.1574 -125.2059)"/><path class="cls-21" d="M2020.62,483.066c.0279,2.6777-6.9984,3.9705-20.49,3.9705H1874.1178a200.8231,200.8231,0,0,1-77.8952-15.5828c-35.6008-14.9766-101.145-35.5527-194.7445-37.0554-3.6086-.0483-7.2188-.0959-10.8988-.0959V759h162.5928V649.3426L1777.7786,541.38c4.16-18.253,15.2732-31.2019,31.2678-31.2019l211.594-.0012Z" transform="translate(-780.1574 -125.2059)"/><path class="cls-22" d="M1753.1721,759H1992.543L2012.07,510.1781H1809.0464c-15.9946,0-27.1077,12.9489-31.2678,31.2022l-24.6065,107.9623Z" transform="translate(-780.1574 -125.2059)"/><path class="cls-9" d="M1816.3008,521.059h194.9154l.854-10.8809H1809.0464c-15.9946,0-27.1072,12.9489-31.2678,31.2019L1753.172,649.3426V759h112.6742V613.097H1829.761a7.39,7.39,0,0,0-7.39,7.39v20.8375l-25.7588-37.6636a202.2713,202.2713,0,0,0-18.7238-20.0564l7.1439-31.3431C1789.1928,534.0082,1800.3061,521.059,1816.3008,521.059Z" transform="translate(-780.1574 -125.2059)"/><path class="cls-23" d="M1753.1721,649.3426l16.3046-71.5287c-23.93-6.8895-91.3767-26.3-93.0561-26.7046l-.57-.1637.0057.0178a106.9058,106.9058,0,0,0-24.4986-2.8881c-27.409,0-53.0967,10.566-75.2869,28.9553V759h141.2736Z" transform="translate(-780.1574 -125.2059)"/><path class="cls-24" d="M1615.3991,434.7853c-8.0649-.2989-16.3117-.4829-24.82-.4829V577.0306a128.5945,128.5945,0,0,1,40.8661-23.25Z" transform="translate(-780.1574 -125.2059)"/><path class="cls-15" d="M1492.0733,487.0365l-13.8872-127.8089c-2.0607-19.6706-19.84-35.7648-39.5109-35.7648H1314.9215c-19.67,0-34.0785,16.0942-32.0181,35.7648l23.96,220.5139H1502.146v-92.705Z" transform="translate(-780.1574 -125.2059)"/><polygon class="cls-16" points="447.432 50.789 684.717 50.789 719.549 309.096 719.549 468.764 679.629 468.764 429.015 309.096 447.432 50.789"/><polygon class="cls-25" points="444.643 89.911 689.992 89.911 684.717 50.789 447.432 50.789 444.643 89.911"/><polygon class="cls-26" points="708.206 50.789 684.717 50.789 719.548 309.096 719.548 468.764 679.629 468.764 576.855 309.096 576.855 50.789 553.366 50.789 553.366 309.096 429.015 309.096 447.432 50.789 423.944 50.789 405.527 309.096 405.527 633.794 743.038 633.794 743.038 309.096 708.206 50.789"/><rect class="cls-24" x="553.366" y="50.7887" width="23.4885" height="39.1223"/><polygon class="cls-24" points="713.481 89.911 708.206 50.789 684.717 50.789 689.992 89.911 713.481 89.911"/><polygon class="cls-24" points="444.643 89.911 447.432 50.789 423.944 50.789 421.154 89.911 444.643 89.911"/><polygon class="cls-24" points="405.527 309.096 435.343 325.832 405.527 325.832 405.527 309.096"/><polygon class="cls-24" points="717.125 116.933 710.791 107.433 692.355 107.433 711.527 249.609 740.972 293.777 717.125 116.933"/><path class="cls-27" d="M1107.8129,416.2356c-56.86,0-108.2433,33.0387-145.1481,86.2371h138.1089c21.1746-30.5236,47.132-54.3624,76.1392-69.18A150.95,150.95,0,0,0,1107.8129,416.2356Z" transform="translate(-780.1574 -125.2059)"/><path class="cls-28" d="M1234.1749,447.4858H1107.8105c-100.1093,0-181.2641,114.77-181.2641,256.3466s81.1548,256.3465,181.2641,256.3465h126.3644c100.11,0,181.2645-114.77,181.2645-256.3465S1334.2848,447.4858,1234.1749,447.4858Z" transform="translate(-780.1574 -125.2059)"/><path class="cls-29" d="M1228.4954,447.4858h-99.8491c81.105,0,151.1,67.1612,183.748,164.2891C1298.0605,541.5069,1267.7961,483.0081,1228.4954,447.4858Z" transform="translate(-780.1574 -125.2059)"/><ellipse class="cls-30" cx="327.6532" cy="578.6265" rx="181.2642" ry="256.3468"/><ellipse class="cls-31" cx="327.6532" cy="578.6265" rx="115.6638" ry="163.5737"/><ellipse class="cls-32" cx="327.6532" cy="578.6265" rx="93.9201" ry="132.8236"/><ellipse class="cls-33" cx="327.6532" cy="578.6265" rx="93.9201" ry="132.8236"/><path class="cls-34" d="M1070.2384,769.0905c0-73.3563,42.0492-132.8236,93.92-132.8236a68.7808,68.7808,0,0,1,26.6767,5.4687c-15.7627-42.061-47.02-70.7267-83.0246-70.7267-51.8709,0-93.92,59.4672-93.92,132.8235,0,60.2466,28.3716,111.0943,67.2436,127.3553A177.5168,177.5168,0,0,1,1070.2384,769.0905Z" transform="translate(-780.1574 -125.2059)"/><path class="cls-35" d="M1013.89,703.8324c0,73.3562,42.0492,132.8234,93.92,132.8234a68.1967,68.1967,0,0,0,22.1822-3.7606h0c-41.1615-14.1009-71.7385-66.5176-71.7385-129.0628s30.577-114.962,71.7385-129.0629h0a68.1861,68.1861,0,0,0-22.1822-3.7606C1055.94,571.0089,1013.89,630.4761,1013.89,703.8324Z" transform="translate(-780.1574 -125.2059)"/><path class="cls-36" d="M1015.9463,676.157c6.64,41.6965,27.128,75.962,54.291,92.6118a176.5027,176.5027,0,0,1-11.9831-64.9364c0-62.545,30.5765-114.962,71.7387-129.0629a68.1882,68.1882,0,0,0-22.1824-3.7606C1062.6523,571.0089,1024.951,616.0876,1015.9463,676.157Z" transform="translate(-780.1574 -125.2059)"/><path class="cls-34" d="M1126.5862,756.8384l36.4478,54.4065c23.4457-24.15,38.6966-63.2526,38.6966-107.4125,0-6.1424-.32-12.176-.8908-18.0971l-15.2366-22.9031Z" transform="translate(-780.1574 -125.2059)"/><path class="cls-37" d="M1152.1743,641.0924h-44.3638c-24.5016,0-44.3639,28.09-44.3639,62.74s19.8623,62.74,44.3639,62.74h44.3638c24.5016,0,44.3638-28.09,44.3638-62.74S1176.6759,641.0924,1152.1743,641.0924Z" transform="translate(-780.1574 -125.2059)"/><ellipse class="cls-30" cx="327.6531" cy="578.6265" rx="44.3638" ry="62.7401"/><path class="cls-38" d="M1245.9216,383.0175H1107.8129c125.2863,0,226.85,143.6333,226.85,320.8149A453.0276,453.0276,0,0,1,1331.253,759h138.1088a453.0071,453.0071,0,0,0,3.41-55.1677C1472.7722,526.6508,1371.2082,383.0175,1245.9216,383.0175Z" transform="translate(-780.1574 -125.2059)"/><path class="cls-26" d="M1307.3957,759a405.2071,405.2071,0,0,0,3.7787-55.168c0-158.8354-91.0479-287.5968-203.3615-287.5968-56.86,0-108.2431,33.0387-145.1481,86.2371L945.9,479.2152c41.1675-59.3428,98.4853-96.1977,161.913-96.1977,125.2863,0,226.85,143.6336,226.85,320.8149a453.0483,453.0483,0,0,1-3.41,55.168Z" transform="translate(-780.1574 -125.2059)"/><polygon class="cls-26" points="1178.477 569.664 1170.173 553.056 1067.302 553.056 1067.302 633.794 1023.007 633.794 1023.007 676.771 1178.477 676.771 1178.477 676.771 1170.173 676.771 1178.477 660.162 1178.477 569.664"/><polygon class="cls-14" points="1266.517 553.056 1170.173 553.056 1178.478 569.665 1178.478 660.162 1170.173 676.771 1266.517 676.771 1274.821 660.162 1274.821 569.665 1266.517 553.056"/><polygon class="cls-24" points="1178.478 660.162 1170.173 676.771 1266.517 676.771 1274.821 660.162 1178.478 660.162"/><polygon class="cls-39" points="1266.517 553.056 1170.173 553.056 1178.478 569.665 1274.821 569.665 1266.517 553.056"/><polygon class="cls-40" points="1215.915 553.056 1224.22 569.665 1224.22 660.162 1215.915 676.771 1220.775 676.771 1229.079 660.162 1229.079 569.665 1220.775 553.056 1215.915 553.056"/><polygon class="cls-40" points="1190.587 553.056 1198.892 569.665 1198.892 660.162 1190.587 676.771 1195.447 676.771 1203.752 660.162 1203.752 569.665 1195.447 553.056 1190.587 553.056"/><polygon class="cls-40" points="1246.102 553.056 1241.242 553.056 1249.546 569.665 1249.546 660.162 1241.242 676.771 1246.102 676.771 1254.406 660.162 1254.406 569.665 1246.102 553.056"/><path class="cls-2" d="M1896.2268,699.79c8.9257,0,16.1613,10.2328,16.1613,22.856s-7.2356,22.8554-16.1613,22.8554-16.1616-10.2328-16.1616-22.8554S1887.301,699.79,1896.2268,699.79Z" transform="translate(-780.1574 -125.2059)"/><path class="cls-23" d="M1859.9727,748.2921l-.1364-70.03H1847.46V759h-44.2947v42.9761h121.2026C1908.5328,779.0463,1883.3517,758.0969,1859.9727,748.2921Z" transform="translate(-780.1574 -125.2059)"/><path class="cls-27" d="M1556.6515,558.8134c-80.9248,0-147.2231,88.1157-153.73,200.1867h110.4851c4.9417-85.11,44.3827-156.359,98.5091-185.7359A114.9644,114.9644,0,0,0,1556.6515,558.8134Z" transform="translate(-780.1574 -125.2059)"/><path class="cls-41" d="M1667.1379,593.97H1556.6527c-71.5061,0-129.4741,81.9785-129.4741,183.1046s57.968,183.1047,129.4741,183.1047h110.4852c71.5068,0,129.4746-81.9785,129.4746-183.1047S1738.6447,593.97,1667.1379,593.97Z" transform="translate(-780.1574 -125.2059)"/><path class="cls-29" d="M1667.1379,593.97H1580.3c38.7456,0,74.127,20.238,101.2287,53.5865h77.1291C1735.23,614.447,1702.8755,593.97,1667.1379,593.97Z" transform="translate(-780.1574 -125.2059)"/><ellipse class="cls-30" cx="776.4957" cy="651.8686" rx="129.4747" ry="183.1048"/><ellipse class="cls-31" cx="776.4958" cy="651.8685" rx="80.7811" ry="114.2417"/><ellipse class="cls-33" cx="776.4957" cy="651.8685" rx="59.0403" ry="83.4957"/><path class="cls-34" d="M1536.5828,824.5652c0-46.6434,26.1923-84.4551,58.5013-84.4551a41.9192,41.9192,0,0,1,15.5092,3.0229c-9.1993-29.1929-29.8818-49.5544-53.94-49.5544-32.6067,0-59.04,37.3823-59.04,83.4959,0,38.5785,18.5057,71.0291,43.6441,80.61A117.1066,117.1066,0,0,1,1536.5828,824.5652Z" transform="translate(-780.1574 -125.2059)"/><path class="cls-42" d="M1571.84,696.47a42.9726,42.9726,0,0,0-15.1873-2.8918c-32.6067,0-59.04,37.3823-59.04,83.4956s26.4333,83.4958,59.04,83.4958a42.9747,42.9747,0,0,0,15.1873-2.8917c-25.2338-9.49-43.8534-41.93-43.8534-80.6041S1546.6062,705.9606,1571.84,696.47Z" transform="translate(-780.1574 -125.2059)"/><path class="cls-36" d="M1498.9291,759.531c4.2943,28.374,18.72,51.3965,37.7177,61.0426a109.5308,109.5308,0,0,1-8.66-43.4994c0-38.6745,18.6193-71.1136,43.8534-80.6038a42.9742,42.9742,0,0,0-15.1876-2.8918C1528.3024,693.5786,1504.6291,721.8437,1498.9291,759.531Z" transform="translate(-780.1574 -125.2059)"/><path class="cls-34" d="M1589.9226,846.0361c15.5539-15.0371,25.7709-40.3052,25.7709-68.9619,0-10-46.8148,37.5486-46.8148,37.5486Z" transform="translate(-780.1574 -125.2059)"/><path class="cls-43" d="M1612.1665,748.8748c-5.8823-10.4739-14.947-17.21-25.14-17.21h-30.3742c-17.7335,0-32.1094,20.3306-32.1094,45.41s14.3759,45.41,32.1094,45.41h30.3742c10.1926,0,19.2573-6.7366,25.14-17.21a114.4991,114.4991,0,0,0,0-56.3991Z" transform="translate(-780.1574 -125.2059)"/><ellipse class="cls-31" cx="776.4957" cy="651.8685" rx="32.1097" ry="45.4098"/><path class="cls-36" d="M1587.0269,731.6644h-19.1563c16.9491,0,31.1247,4.8411,39.4848,10.3136C1601.8207,735.5454,1594.7517,731.6644,1587.0269,731.6644Z" transform="translate(-780.1574 -125.2059)"/><rect class="cls-26" x="397.8621" y="16.6094" width="316.5048" height="34.1795"/><rect class="cls-14" x="714.3669" y="16.6094" width="294.5197" height="34.1795"/><path class="cls-44" d="M1456.9017,221.7625h-35.9185c-8.9465,0-16.1991,8.1524-16.1991,18.209V355.8968c0,10.0567,7.2526,18.209,16.1991,18.209h35.9185c8.9467,0,16.1991-8.1523,16.1991-18.209V239.9715C1473.1008,229.9149,1465.8484,221.7625,1456.9017,221.7625Z" transform="translate(-780.1574 -125.2059)"/><path class="cls-2" d="M1477.6739,221.7625h-35.919c-8.9462,0-16.1991,8.1524-16.1991,18.209V355.8968c0,10.0567,7.2529,18.209,16.1991,18.209h35.919c8.9465,0,16.1991-8.1523,16.1991-18.209V239.9715C1493.873,229.9149,1486.62,221.7625,1477.6739,221.7625Z" transform="translate(-780.1574 -125.2059)"/><path class="cls-45" d="M2010.7576,604.4786H1966.572c-2.9856,0-5.4062,3.3087-5.4062,7.39v23.7427c0,4.0818,2.4206,7.39,5.4062,7.39h44.1856c2.9859,0,5.4063-3.3087,5.4063-7.39V611.8691C2016.1639,607.7873,2013.7435,604.4786,2010.7576,604.4786Z" transform="translate(-780.1574 -125.2059)"/><path class="cls-46" d="M1906.5764,604.4786h-81.46c-2.9857,0-5.4061,3.3087-5.4061,7.39v23.7427c0,4.0818,2.42,7.39,5.4061,7.39h81.46c2.9857,0,5.4062-3.3087,5.4062-7.39V611.8691C1911.9826,607.7873,1909.5621,604.4786,1906.5764,604.4786Z" transform="translate(-780.1574 -125.2059)"/><path class="cls-26" d="M1402.9216,759h-25.2832c6.5626-131.772,84.1664-235.8158,179.0131-235.8158,45.07,0,86.2278,23.5412,117.7536,62.3335L1657.8805,612.4c-27.1015-33.3483-62.4834-53.5862-101.229-53.5862C1475.7267,558.8137,1409.4287,646.9291,1402.9216,759Z" transform="translate(-780.1574 -125.2059)"/><path class="cls-47" d="M1667.1366,523.1846H1556.6515c45.07,0,86.2278,23.5412,117.7536,62.3335H1784.89C1753.3644,546.7258,1712.2069,523.1846,1667.1366,523.1846Z" transform="translate(-780.1574 -125.2059)"/><polygon class="cls-12" points="877.723 487.194 894.248 460.312 1004.733 460.312 988.208 487.194 877.723 487.194"/><polygon class="cls-9" points="1081.725 826.541 1080.126 812.713 1065.845 801.799 1064.031 826.541 1081.725 826.541"/><polygon class="cls-48" points="1047.397 826.541 1057.331 807.867 1065.845 801.799 1064.031 826.541 1047.397 826.541"/><polygon class="cls-49" points="176.743 799.758 158.096 804.171 141.419 834.973 181.453 834.973 176.743 799.758"/><polygon class="cls-9" points="193.849 834.973 176.743 799.758 181.453 834.973 193.849 834.973"/><polygon class="cls-49" points="3.192 834.973 0 823.349 12.852 820.537 11.771 834.973 3.192 834.973"/><polygon class="cls-9" points="20.552 834.973 18.356 823.349 12.852 820.537 11.771 834.973 20.552 834.973"/><polygon class="cls-48" points="64.871 834.973 112.144 817.821 122.273 826.396 116.532 834.973 64.871 834.973"/><polygon class="cls-9" points="131.053 834.973 126.664 824.064 112.144 817.821 122.273 826.396 116.532 834.973 131.053 834.973"/><polygon class="cls-50" points="126.664 824.064 112.144 817.821 122.273 826.396 126.664 824.064"/><polygon class="cls-49" points="1001.131 826.541 1013.877 809.677 1023.683 826.541 1001.131 826.541"/><polygon class="cls-9" points="1035.122 826.541 1023.683 813.813 1013.877 809.677 1023.683 826.541 1035.122 826.541"/></svg>