<svg id="Icons" height="512" viewBox="0 0 74 74" width="512" xmlns="http://www.w3.org/2000/svg"><path d="m14.271 49.42a1.009 1.009 0 0 1 -.109-.006c-.055-.005-.108 0-.162 0h-10.82a1 1 0 0 1 -.994-1.1 34.83 34.83 0 0 1 7.638-18.474 1 1 0 0 1 .724-.368 1.006 1.006 0 0 1 .759.291l7.67 7.659.19.18a1 1 0 0 1 .1 1.3 21.94 21.94 0 0 0 -4.006 9.667 1 1 0 0 1 -.99.851zm-9.965-2.01h9.123a23.969 23.969 0 0 1 3.723-8.983l-6.461-6.453a32.82 32.82 0 0 0 -6.385 15.436z"/><path d="m23.4 34.37a1 1 0 0 1 -.707-.293l-.114-.12-7.726-7.741a1 1 0 0 1 .077-1.483 34.841 34.841 0 0 1 18.47-7.633.983.983 0 0 1 .772.253 1 1 0 0 1 .33.742v10.815a1.479 1.479 0 0 0 0 .163 1 1 0 0 1 -.844 1.1 21.94 21.94 0 0 0 -9.667 4.006 1 1 0 0 1 -.591.191zm-6.336-8.77 6.453 6.461a23.985 23.985 0 0 1 8.983-3.722v-9.123a32.814 32.814 0 0 0 -15.436 6.384z"/><path d="m50.6 34.37a1 1 0 0 1 -.593-.2 20.416 20.416 0 0 0 -2.755-1.716 17.85 17.85 0 0 0 -1.677-.806 21.488 21.488 0 0 0 -4.265-1.311c-.327-.07-.646-.126-.965-.173a1 1 0 0 1 -.849-1.1 1.479 1.479 0 0 0 0-.163v-10.811a1 1 0 0 1 .33-.742.989.989 0 0 1 .774-.248 33.706 33.706 0 0 1 4.473.763 1 1 0 1 1 -.469 1.944c-1.021-.246-2.061-.442-3.1-.586v9.123l.207.042a23.5 23.5 0 0 1 4.642 1.428 19.264 19.264 0 0 1 1.839.882 21.87 21.87 0 0 1 2.295 1.371l6.45-6.467c-.725-.549-1.472-1.067-2.23-1.545a1 1 0 0 1 1.067-1.692 34.126 34.126 0 0 1 3.3 2.37 1 1 0 0 1 .076 1.482l-7.84 7.861a1 1 0 0 1 -.71.294z"/><path d="m51.08 21.95a.992.992 0 0 1 -.416-.091c-.637-.291-1.181-.516-1.714-.709a1 1 0 0 1 .68-1.88c.577.208 1.188.46 1.866.771a1 1 0 0 1 -.416 1.909z"/><path d="m59.729 49.42a1 1 0 0 1 -.988-.85 21.94 21.94 0 0 0 -4.006-9.67 1 1 0 0 1 .1-1.3l.123-.117 7.737-7.723a1.008 1.008 0 0 1 .759-.291 1 1 0 0 1 .724.368 34.83 34.83 0 0 1 7.638 18.469 1 1 0 0 1 -.994 1.1h-10.822c-.054 0-.108 0-.162 0a1.009 1.009 0 0 1 -.109.014zm.842-2.01h9.123a32.82 32.82 0 0 0 -6.385-15.436l-6.461 6.453a23.969 23.969 0 0 1 3.723 8.983z"/><path d="m37 56.91a5 5 0 1 1 5-5 5.006 5.006 0 0 1 -5 5zm0-8a3 3 0 1 0 3 3 3 3 0 0 0 -3-3z"/><path d="m38 49.041a1 1 0 0 1 -.9-1.442l5-10.131a1 1 0 1 1 1.794.885l-5 10.13a1 1 0 0 1 -.894.558z"/></svg>